<svg width="22" height="21" viewBox="0 0 22 21" fill="none" xmlns="http://www.w3.org/2000/svg">
<path d="M9.47816 1.68328C9.95713 0.209181 12.0426 0.209184 12.5215 1.68328L13.8736 5.84458C14.0878 6.50382 14.7022 6.95016 15.3953 6.95016H19.7708C21.3207 6.95016 21.9652 8.93354 20.7112 9.84458L17.1714 12.4164C16.6106 12.8238 16.376 13.546 16.5902 14.2053L17.9423 18.3666C18.4212 19.8407 16.7341 21.0665 15.4801 20.1554L11.9403 17.5836C11.3795 17.1762 10.6202 17.1762 10.0594 17.5836L6.51958 20.1554C5.26564 21.0665 3.57847 19.8407 4.05744 18.3666L5.40953 14.2053C5.62372 13.546 5.38907 12.8238 4.82829 12.4164L1.28847 9.84458C0.0345326 8.93354 0.678975 6.95016 2.22893 6.95016H6.60438C7.29755 6.95016 7.91187 6.50382 8.12607 5.84458L9.47816 1.68328Z" fill="url(#paint0_linear_109_269)"/>
<defs>
<linearGradient id="paint0_linear_109_269" x1="10.9999" y1="-3" x2="10.9999" y2="25.8" gradientUnits="userSpaceOnUse">
<stop stop-color="#FFCE50"/>
<stop offset="1" stop-color="#FE9D0B"/>
</linearGradient>
</defs>
</svg>
