<svg width="22" height="21" viewBox="0 0 22 21" fill="none" xmlns="http://www.w3.org/2000/svg">
<path d="M9.27821 1.68328C9.75718 0.209181 11.8426 0.209184 12.3216 1.68328L13.6737 5.84458C13.8879 6.50382 14.5022 6.95016 15.1954 6.95016H19.5708C21.1208 6.95016 21.7652 8.93354 20.5113 9.84458L16.9715 12.4164C16.4107 12.8238 16.176 13.546 16.3902 14.2053L17.7423 18.3666C18.2213 19.8407 16.5341 21.0665 15.2802 20.1554L11.7404 17.5836C11.1796 17.1762 10.4202 17.1762 9.85945 17.5836L6.31963 20.1554C5.06569 21.0665 3.37852 19.8407 3.85749 18.3666L5.20957 14.2053C5.42377 13.546 5.18912 12.8238 4.62834 12.4164L1.08852 9.84458C-0.165419 8.93354 0.479024 6.95016 2.02898 6.95016H6.40443C7.09759 6.95016 7.71192 6.50382 7.92612 5.84458L9.27821 1.68328Z" fill="url(#paint0_linear_109_268)"/>
<defs>
<linearGradient id="paint0_linear_109_268" x1="10.7999" y1="-3" x2="10.7999" y2="25.8" gradientUnits="userSpaceOnUse">
<stop stop-color="#FFCE50"/>
<stop offset="1" stop-color="#FE9D0B"/>
</linearGradient>
</defs>
</svg>
