<svg width="24" height="17" viewBox="0 0 24 17" fill="none" xmlns="http://www.w3.org/2000/svg">
<path d="M10.2161 9.06519C10.5921 9.34406 11.0631 9.49643 11.5491 9.49643C12.035 9.49643 12.506 9.34406 12.8821 9.06519L22.1055 2.20164C21.7155 1.77287 21.226 1.42723 20.6718 1.18928C20.1176 0.951339 19.5123 0.826946 18.8991 0.824951H4.19907C3.5858 0.826946 2.98054 0.951339 2.42635 1.18928C1.87217 1.42723 1.38267 1.77287 0.992676 2.20164L10.2161 9.06519Z" fill="#DDDDDD"/>
<path d="M14.216 10.5354C13.4637 11.0926 12.5218 11.397 11.55 11.397C10.5782 11.397 9.63635 11.0926 8.88399 10.5354L0.072807 3.97852C0.0277014 4.19318 0.00334022 4.411 0 4.6295V13.1902C0.00118681 14.199 0.444067 15.1661 1.23146 15.8794C2.01886 16.5927 3.08646 16.9939 4.2 16.995H18.9C20.0135 16.9939 21.0811 16.5927 21.8685 15.8794C22.6559 15.1661 23.0988 14.199 23.1 13.1902V4.6295C23.0967 4.411 23.0723 4.19318 23.0272 3.97852L14.216 10.5354Z" fill="#DDDDDD"/>
</svg>
