<svg width="79" height="129" viewBox="0 0 79 129" fill="none" xmlns="http://www.w3.org/2000/svg">
<path d="M25.9708 5.89544L35.5514 0.427059C35.9767 0.17307 36.2881 0.114646 36.4523 0.216241L37.6195 0.888471C37.8228 1.00531 37.8151 1.34904 37.565 1.88072L35.2154 6.69297L36.9542 8.25584C37.1386 8.39758 37.2833 8.58404 37.3745 8.79738C37.4657 9.01071 37.5004 9.24377 37.4752 9.47426C37.45 9.70474 37.3658 9.92494 37.2307 10.1138C37.0955 10.3026 36.9139 10.4538 36.7032 10.5527L27.1226 16.0685L25.9554 15.3913L25.9708 5.89544Z" fill="#407BFF"/>
<path opacity="0.5" d="M25.9708 5.89544L35.5514 0.427059C35.9767 0.17307 36.2881 0.114646 36.4523 0.216241L37.6195 0.888471C37.8228 1.00531 37.8151 1.34904 37.565 1.88072L35.2154 6.69297L36.9542 8.25584C37.1386 8.39758 37.2833 8.58404 37.3745 8.79738C37.4657 9.01071 37.5004 9.24377 37.4752 9.47426C37.45 9.70474 37.3658 9.92494 37.2307 10.1138C37.0955 10.3026 36.9139 10.4538 36.7032 10.5527L27.1226 16.0685L25.9554 15.3913L25.9708 5.89544Z" fill="white"/>
<path d="M36.7185 1.05147C37.6543 0.51217 38.0345 0.864359 37.5641 1.8329L35.2144 6.64515L36.9533 8.20803C37.1376 8.34977 37.2824 8.53623 37.3736 8.74956C37.4648 8.96289 37.4995 9.19596 37.4743 9.42645C37.4491 9.65694 37.3649 9.87714 37.2298 10.066C37.0946 10.2548 36.913 10.406 36.7023 10.5049L27.1191 16.0199V6.57573L36.7185 1.05147Z" fill="#407BFF"/>
<path d="M26.0184 36.2931C26.167 36.294 26.3143 36.2655 26.4517 36.2092C26.5891 36.153 26.714 36.0701 26.8189 35.9654C26.9239 35.8607 27.0069 35.7363 27.0631 35.5994C27.1193 35.4625 27.1476 35.3158 27.1464 35.1679V3.43451C27.1231 3.15373 26.9946 2.89192 26.7863 2.70107C26.578 2.51023 26.3053 2.4043 26.0222 2.4043C25.7391 2.4043 25.4663 2.51023 25.2581 2.70107C25.0498 2.89192 24.9213 3.15373 24.898 3.43451V35.1679C24.8968 35.3151 24.9248 35.4612 24.9806 35.5976C25.0363 35.734 25.1186 35.8581 25.2228 35.9627C25.3269 36.0673 25.4508 36.1503 25.5874 36.207C25.7239 36.2637 25.8704 36.293 26.0184 36.2931Z" fill="#455A64"/>
<path d="M67.23 120.79V118.814H66.7536C66.01 117.482 64.8906 116.396 63.5337 115.689C58.5826 112.838 50.5613 112.838 45.6111 115.689C44.2517 116.392 43.1315 117.48 42.3911 118.814H41.9045V120.729C41.9045 122.627 43.0955 124.533 45.6094 125.978C50.5605 128.829 58.5818 128.829 63.532 125.978C65.9684 124.549 67.2453 122.666 67.23 120.79Z" fill="#263238"/>
<path d="M54.563 126.112C61.563 126.112 67.2376 122.845 67.2376 118.815C67.2376 114.785 61.563 111.518 54.563 111.518C47.5629 111.518 41.8883 114.785 41.8883 118.815C41.8883 122.845 47.5629 126.112 54.563 126.112Z" fill="#455A64"/>
<path d="M51.2963 50.0898V117.947C51.3235 118.233 51.4262 118.506 51.594 118.74C51.7618 118.973 51.9887 119.158 52.2516 119.276C52.9662 119.638 53.7568 119.827 54.5587 119.827C55.3607 119.827 56.1513 119.638 56.8658 119.276C57.1297 119.159 57.3575 118.975 57.5255 118.741C57.6935 118.508 57.7956 118.233 57.8212 117.947V50.0898H51.2963Z" fill="#37474F"/>
<path d="M57.8212 58.2998V64.6826L51.2963 68.4323V62.0656L57.8212 58.2998Z" fill="#263238"/>
<path d="M34.1648 44.0182L22.101 50.9716C22.162 51.0705 22.2417 51.1568 22.3357 51.2255L43.4392 63.3738C43.6195 63.4754 43.7607 63.3739 43.7607 63.1783V48.0109C43.7027 45.0938 43.1052 42.2124 41.9981 39.5107L34.1648 44.0182Z" fill="#407BFF"/>
<path opacity="0.4" d="M34.1648 44.0182L22.101 50.9716C22.162 51.0705 22.2417 51.1568 22.3357 51.2255L43.4392 63.3738C43.6195 63.4754 43.7607 63.3739 43.7607 63.1783V48.0109C43.7027 45.0938 43.1052 42.2124 41.9981 39.5107L34.1648 44.0182Z" fill="black"/>
<path d="M22.0073 34.057V51.0488L41.9989 39.5177L41.9283 39.3535C39.7896 34.0096 36.2022 29.4869 32.2855 27.2365C30.9286 26.3832 29.3696 25.9008 27.7657 25.8379C24.209 25.8387 22.0073 28.9873 22.0073 34.057Z" fill="#407BFF"/>
<path opacity="0.3" d="M22.0073 34.057V51.0488L41.9989 39.5177L41.9283 39.3535C39.7896 34.0096 36.2022 29.4869 32.2855 27.2365C30.9286 26.3832 29.3696 25.9008 27.7657 25.8379C24.209 25.8387 22.0073 28.9873 22.0073 34.057Z" fill="black"/>
<path d="M0.300781 69.9703V68.4548H0.449657V68.6732C0.539507 68.2525 0.670574 67.8416 0.840981 67.4464C1.92383 65.2438 3.69346 63.4488 5.88566 62.3294L20.1664 54.1027C20.501 53.9369 20.8697 53.8506 21.2434 53.8506C21.6172 53.8506 21.9859 53.9369 22.3204 54.1027L44.1597 66.6726C44.429 66.4495 44.6615 66.1859 44.8488 65.8912V67.4532C44.8353 67.586 44.7879 67.7131 44.7111 67.8225C44.6342 67.9319 44.5305 68.0198 44.4098 68.078L30.118 76.2963C25.9283 78.54 21.22 79.6494 16.4642 79.5135C12.5036 79.5581 8.59535 78.611 5.09876 76.7594C1.88734 74.9239 0.305032 72.478 0.305032 69.9863L0.300781 69.9703Z" fill="#407BFF"/>
<path opacity="0.4" d="M0.300781 69.9703V68.4548H0.449657V68.6732C0.539507 68.2525 0.670574 67.8416 0.840981 67.4464C1.92383 65.2438 3.69346 63.4488 5.88566 62.3294L20.1664 54.1027C20.501 53.9369 20.8697 53.8506 21.2434 53.8506C21.6172 53.8506 21.9859 53.9369 22.3204 54.1027L44.1597 66.6726C44.429 66.4495 44.6615 66.1859 44.8488 65.8912V67.4532C44.8353 67.586 44.7879 67.7131 44.7111 67.8225C44.6342 67.9319 44.5305 68.0198 44.4098 68.078L30.118 76.2963C25.9283 78.54 21.22 79.6494 16.4642 79.5135C12.5036 79.5581 8.59535 78.611 5.09876 76.7594C1.88734 74.9239 0.305032 72.478 0.305032 69.9863L0.300781 69.9703Z" fill="black"/>
<path d="M0.840981 67.4562C1.92383 65.2536 3.69346 63.4586 5.88566 62.3392L20.1664 54.1125C20.501 53.9467 20.8697 53.8604 21.2434 53.8604C21.6172 53.8604 21.9859 53.9467 22.3204 54.1125L44.1597 66.6748L30.1231 74.7525C25.932 76.9925 21.2247 78.1016 16.4693 77.9697C12.5086 78.0097 8.60087 77.0617 5.10301 75.2122C2.21997 73.5562 0.646169 71.4235 0.356079 69.1969C0.433821 68.5961 0.59739 68.0093 0.841831 67.4545L0.840981 67.4562Z" fill="#407BFF"/>
<path opacity="0.2" d="M0.840981 67.4562C1.92383 65.2536 3.69346 63.4586 5.88566 62.3392L20.1664 54.1125C20.501 53.9467 20.8697 53.8604 21.2434 53.8604C21.6172 53.8604 21.9859 53.9467 22.3204 54.1125L44.1597 66.6748L30.1231 74.7525C25.932 76.9925 21.2247 78.1016 16.4693 77.9697C12.5086 78.0097 8.60087 77.0617 5.10301 75.2122C2.21997 73.5562 0.646169 71.4235 0.356079 69.1969C0.433821 68.5961 0.59739 68.0093 0.841831 67.4545L0.840981 67.4562Z" fill="black"/>
<path d="M0.355229 69.2067C0.431516 68.6006 0.595112 68.0087 0.840981 67.449C1.92383 65.2464 3.69346 63.4514 5.88566 62.332L20.1664 54.1053C20.501 53.9395 20.8697 53.8532 21.2434 53.8532C21.6172 53.8532 21.9859 53.9395 22.3204 54.1053L44.158 66.6752L44.409 66.5347C44.5388 66.4901 44.6514 66.4063 44.7311 66.295C44.8108 66.1837 44.8536 66.0504 44.8536 65.9137C44.8536 65.777 44.8108 65.6437 44.7311 65.5324C44.6514 65.4211 44.5388 65.3373 44.409 65.2927L22.3204 52.6127C21.9875 52.4414 21.6182 52.3521 21.2434 52.3521C20.8687 52.3521 20.4994 52.4414 20.1664 52.6127L5.88566 60.8394C3.69695 61.9635 1.92864 63.7572 0.840981 65.9564C0.578964 66.5495 0.409971 67.1791 0.339912 67.8233C0.288774 68.283 0.29392 68.7473 0.355229 69.2058V69.2067Z" fill="#407BFF"/>
<path opacity="0.3" d="M0.355229 69.2067C0.431516 68.6006 0.595112 68.0087 0.840981 67.449C1.92383 65.2464 3.69346 63.4514 5.88566 62.332L20.1664 54.1053C20.501 53.9395 20.8697 53.8532 21.2434 53.8532C21.6172 53.8532 21.9859 53.9395 22.3204 54.1053L44.158 66.6752L44.409 66.5347C44.5388 66.4901 44.6514 66.4063 44.7311 66.295C44.8108 66.1837 44.8536 66.0504 44.8536 65.9137C44.8536 65.777 44.8108 65.6437 44.7311 65.5324C44.6514 65.4211 44.5388 65.3373 44.409 65.2927L22.3204 52.6127C21.9875 52.4414 21.6182 52.3521 21.2434 52.3521C20.8687 52.3521 20.4994 52.4414 20.1664 52.6127L5.88566 60.8394C3.69695 61.9635 1.92864 63.7572 0.840981 65.9564C0.578964 66.5495 0.409971 67.1791 0.339912 67.8233C0.288774 68.283 0.29392 68.7473 0.355229 69.2058V69.2067Z" fill="black"/>
<path d="M43.9274 65.0808L21.8431 52.3619L22.3365 51.2139L43.44 63.3698L43.9274 65.0808Z" fill="#407BFF"/>
<path opacity="0.1" d="M43.9274 65.0808L21.8431 52.3619L22.3365 51.2139L43.44 63.3698L43.9274 65.0808Z" fill="black"/>
<path d="M23.958 33.0822C23.9672 32.9006 24.0196 32.7238 24.1109 32.5663C24.2021 32.4089 24.3296 32.2752 24.4829 32.1763L51.3652 16.677C51.527 16.5922 51.7071 16.5479 51.89 16.5479C52.073 16.5479 52.2531 16.5922 52.4149 16.677L53.0104 17.0207C53.1637 17.1196 53.2912 17.2533 53.3824 17.4108C53.4737 17.5683 53.5261 17.7451 53.5353 17.9266V38.4811C53.5248 38.6624 53.4719 38.8387 53.3807 38.996C53.2896 39.1533 53.1628 39.2872 53.0104 39.387L26.1282 54.8702C25.9637 54.9509 25.7828 54.9928 25.5994 54.9928C25.4161 54.9928 25.2352 54.9509 25.0707 54.8702L24.4829 54.5265C24.3305 54.4266 24.2037 54.2927 24.1126 54.1354C24.0214 53.9781 23.9685 53.8018 23.958 53.6206V33.0822Z" fill="#F5F5F5"/>
<path d="M24.1069 32.5349L25.6033 33.3942L53.3805 17.3929C53.2942 17.2307 53.1673 17.0934 53.0122 16.9942L52.4167 16.6555C52.2549 16.5707 52.0747 16.5264 51.8918 16.5264C51.7089 16.5264 51.5287 16.5707 51.3669 16.6555L24.4515 32.1438C24.3043 32.2416 24.1855 32.3762 24.1069 32.5341V32.5349Z" fill="#E0E0E0"/>
<path d="M25.5956 33.3871L25.8738 33.5496C25.7875 33.5866 25.7149 33.6493 25.6658 33.729C25.6168 33.8088 25.5937 33.9017 25.5998 33.9949V54.5494C25.5922 54.6163 25.6035 54.6839 25.6325 54.7447C25.6615 54.8054 25.7071 54.8569 25.764 54.8932C25.8446 54.925 25.9344 54.925 26.015 54.8932L26.1247 54.8466L53.0172 39.3702C53.1692 39.2699 53.2956 39.1359 53.3867 38.9787C53.4778 38.8215 53.531 38.6454 53.5421 38.4643V17.9107C53.5351 17.7259 53.4813 17.5459 53.3856 17.3875L25.5956 33.3871Z" fill="#EBEBEB"/>
<path opacity="0.2" d="M25.6033 33.3938L38.0508 38.0266C38.481 38.19 38.9545 38.2016 39.3922 38.0594C39.8299 37.9172 40.2053 37.6297 40.4557 37.2452L42.4693 34.1829L53.4834 17.335L42.8496 34.3031L53.5345 38.4753C53.5281 38.6613 53.4713 38.842 53.3703 38.9985L42.8215 34.3505L40.4719 38.0613C40.2143 38.4738 39.8159 38.78 39.3497 38.9236C38.8835 39.0671 38.3809 39.0384 37.9342 38.8428L36.2813 38.1164L25.7326 54.905C25.6783 54.8666 25.6352 54.8146 25.6077 54.7542C25.5802 54.6938 25.5693 54.6272 25.576 54.5613V54.1786L36.2609 38.085L25.6033 33.3938Z" fill="black"/>
<path d="M30.3187 36.6833C30.3298 36.5022 30.383 36.3261 30.4741 36.1689C30.5652 36.0117 30.6917 35.8777 30.8436 35.7774L57.7361 20.301C57.8979 20.2162 58.0781 20.1719 58.261 20.1719C58.4439 20.1719 58.624 20.2162 58.7859 20.301L59.3813 20.6397C59.5333 20.74 59.6598 20.874 59.7509 21.0312C59.842 21.1884 59.8951 21.3645 59.9062 21.5456V42.1001C59.8947 42.2822 59.8414 42.4594 59.7504 42.6179C59.6594 42.7764 59.5332 42.912 59.3813 43.0144L32.4889 58.4908C32.3271 58.5757 32.1469 58.6201 31.964 58.6201C31.7811 58.6201 31.6009 58.5757 31.4391 58.4908L30.8436 58.1522C30.6917 58.0519 30.5652 57.9179 30.4741 57.7607C30.383 57.6035 30.3298 57.4274 30.3187 57.2463V36.6833Z" fill="#F5F5F5"/>
<path d="M30.4752 36.2073L31.964 37.0666L59.7497 21.028C59.6608 20.8699 59.5343 20.7359 59.3813 20.6377L58.7858 20.2991C58.624 20.2143 58.4438 20.1699 58.2609 20.1699C58.078 20.1699 57.8979 20.2143 57.7361 20.2991L30.8436 35.7755C30.6855 35.8848 30.5586 36.033 30.4752 36.2056V36.2073Z" fill="#E0E0E0"/>
<path d="M31.964 37.0277L32.2379 37.1919C32.1517 37.229 32.079 37.2916 32.03 37.3714C31.981 37.4511 31.9579 37.544 31.964 37.6373V58.1918C31.9563 58.2586 31.9677 58.3262 31.9967 58.387C32.0257 58.4477 32.0713 58.4992 32.1282 58.5355C32.2088 58.5673 32.2985 58.5673 32.3791 58.5355L32.4889 58.4889L59.3814 43.0125C59.5333 42.9122 59.6598 42.7782 59.7509 42.621C59.842 42.4638 59.8951 42.2878 59.9062 42.1066V21.5513C59.8993 21.3665 59.8454 21.1865 59.7497 21.0281L31.964 37.0277Z" fill="#EBEBEB"/>
<path opacity="0.2" d="M31.964 37.0273L44.4192 41.6753C44.8485 41.8353 45.3198 41.8452 45.7556 41.7031C46.1913 41.5611 46.5654 41.2757 46.8165 40.8939L48.8216 37.8392L59.8509 20.9727L49.2171 37.9408L59.902 42.1122C59.886 42.2963 59.83 42.4749 59.7378 42.6354L49.1891 37.9476L46.8394 41.6584C46.5821 42.0691 46.185 42.374 45.7205 42.5175C45.256 42.661 44.7552 42.6334 44.3094 42.4398L42.6463 41.7151L32.1282 58.5342C32.0713 58.498 32.0257 58.4465 31.9967 58.3858C31.9677 58.325 31.9563 58.2574 31.964 58.1905V57.8468L42.625 41.7219L31.964 37.0273Z" fill="black"/>
<path d="M36.6871 40.3246C36.6964 40.143 36.7488 39.9662 36.84 39.8087C36.9313 39.6513 37.0588 39.5176 37.212 39.4187L64.0943 23.9347C64.2572 23.8535 64.437 23.8113 64.6192 23.8113C64.8014 23.8113 64.9811 23.8535 65.1441 23.9347L65.7396 24.2784C65.8928 24.3773 66.0203 24.511 66.1116 24.6685C66.2028 24.8259 66.2552 25.0027 66.2644 25.1843V45.7388C66.2552 45.9203 66.2028 46.0971 66.1116 46.2546C66.0203 46.4121 65.8928 46.5458 65.7396 46.6447L38.8573 62.1287C38.6928 62.2093 38.5119 62.2513 38.3286 62.2513C38.1452 62.2513 37.9643 62.2093 37.7999 62.1287L37.212 61.7849C37.0588 61.686 36.9313 61.5524 36.84 61.3949C36.7488 61.2374 36.6964 61.0606 36.6871 60.8791V40.3246Z" fill="#F5F5F5"/>
<path d="M36.8359 39.8087L38.3323 40.668L66.1095 24.6667C66.0228 24.5071 65.8959 24.3726 65.7412 24.2764L65.1457 23.9327C64.9827 23.8516 64.803 23.8093 64.6208 23.8093C64.4386 23.8093 64.2589 23.8516 64.0959 23.9327L37.2137 39.4167C37.0566 39.5124 36.927 39.6468 36.8376 39.807L36.8359 39.8087Z" fill="#E0E0E0"/>
<path d="M38.4497 62.238C38.4162 62.2464 38.3812 62.2464 38.3477 62.238C38.3632 62.247 38.3808 62.2517 38.3987 62.2517C38.4166 62.2517 38.4342 62.247 38.4497 62.238Z" fill="#407BFF"/>
<path d="M38.3238 40.6604L38.5977 40.8247C38.5115 40.8617 38.4389 40.9244 38.3898 41.0041C38.3408 41.0839 38.3177 41.1767 38.3238 41.27V61.8321C38.3162 61.8983 38.3276 61.9652 38.3567 62.0251C38.3858 62.085 38.4313 62.1355 38.488 62.1708C38.5686 62.2026 38.6584 62.2026 38.739 62.1708L38.8487 62.1319L65.7412 46.6478C65.8944 46.5489 66.0219 46.4152 66.1132 46.2577C66.2044 46.1003 66.2568 45.9235 66.2661 45.7419V25.1917C66.2591 25.0069 66.2052 24.8269 66.1095 24.6685L38.3238 40.6604Z" fill="#EBEBEB"/>
<path opacity="0.2" d="M38.3325 40.6686L50.78 45.3057C51.2105 45.4662 51.683 45.4763 52.12 45.3343C52.5571 45.1923 52.9326 44.9066 53.1849 44.5242L55.1824 41.4696L66.2118 24.614L55.578 41.5745L66.2628 45.7467C66.2564 45.9327 66.1997 46.1135 66.0986 46.27L55.5499 41.622L53.2002 45.3327C52.9427 45.7453 52.5442 46.0514 52.078 46.195C51.6118 46.3386 51.1092 46.3099 50.6626 46.1142L49.0097 45.3801L38.4609 62.1688C38.4054 62.1316 38.3614 62.0797 38.3338 62.019C38.3061 61.9583 38.296 61.8912 38.3044 61.8251V61.4763L48.9578 45.3514L38.3325 40.6686Z" fill="black"/>
<path d="M24.8037 25.2698C26.9424 24.1523 29.7778 24.3478 32.8803 26.1444C36.3682 28.1365 39.5073 31.7618 41.7089 35.9094C42.221 36.8722 42.6813 37.8613 43.0879 38.8726C44.2969 41.765 44.948 44.8579 45.0071 47.99V65.3459C45.3805 65.3508 45.7494 65.2636 46.0807 65.0919L77.0115 47.2611C77.3235 47.0549 77.5829 46.7793 77.7693 46.4559C77.9557 46.1326 78.0638 45.7706 78.085 45.3985V28.9493C78.085 20.731 72.6567 10.9813 65.9668 7.0749C62.8336 5.24703 59.9114 5.09802 57.7498 6.29346L24.8037 25.2698Z" fill="#407BFF"/>
<path opacity="0.2" d="M24.8037 25.2698C26.9424 24.1523 29.7778 24.3478 32.8803 26.1444C36.3682 28.1365 39.5073 31.7618 41.7089 35.9094C42.221 36.8722 42.6813 37.8613 43.0879 38.8726C44.2969 41.765 44.948 44.8579 45.0071 47.99V65.3459C45.3805 65.3508 45.7494 65.2636 46.0807 65.0919L77.0115 47.2611C77.3235 47.0549 77.5829 46.7793 77.7693 46.4559C77.9557 46.1326 78.0638 45.7706 78.085 45.3985V28.9493C78.085 20.731 72.6567 10.9813 65.9668 7.0749C62.8336 5.24703 59.9114 5.09802 57.7498 6.29346L24.8037 25.2698Z" fill="black"/>
<path opacity="0.1" d="M77.0139 47.2607L46.0797 65.1119C45.7484 65.2835 45.3795 65.3708 45.0061 65.3659V48.0099C44.9948 46.3765 44.8005 44.7494 44.4268 43.1588L77.5192 24.1045C77.8867 25.6934 78.0784 27.3176 78.0908 28.9481V45.4006C78.0696 45.7727 77.9615 46.1348 77.7751 46.4581C77.5887 46.7814 77.3293 47.0571 77.0173 47.2632L77.0139 47.2607Z" fill="black"/>
<path d="M43.0878 38.8947C44.2968 41.787 44.9479 44.88 45.007 48.0121V65.3477C45.1386 65.3442 45.2696 65.3286 45.3983 65.3011C45.3983 64.3089 45.3983 58.7465 45.3983 48.0121C45.3983 35.2703 35.5676 27.1689 32.8649 26.1377C36.3528 28.1298 39.4919 31.7551 41.6935 35.9027C42.2117 36.8745 42.6771 37.8733 43.0878 38.8947Z" fill="#407BFF"/>
<path opacity="0.4" d="M43.0878 38.8947C44.2968 41.787 44.9479 44.88 45.007 48.0121V65.3477C45.1386 65.3442 45.2696 65.3286 45.3983 65.3011C45.3983 64.3089 45.3983 58.7465 45.3983 48.0121C45.3983 35.2703 35.5676 27.1689 32.8649 26.1377C36.3528 28.1298 39.4919 31.7551 41.6935 35.9027C42.2117 36.8745 42.6771 37.8733 43.0878 38.8947Z" fill="black"/>
<path d="M43.44 63.3712C43.4715 63.3961 43.5099 63.4109 43.55 63.4137C43.5902 63.4165 43.6303 63.4072 43.665 63.387C43.6997 63.3668 43.7275 63.3366 43.7448 63.3004C43.762 63.2642 43.7678 63.2237 43.7615 63.1841V48.0159C43.7051 45.0986 43.1076 42.2169 41.9989 39.5157L41.9283 39.3515C41.5011 38.2813 41.0094 37.2377 40.4557 36.2266C38.317 32.2974 35.4187 29.0302 32.2889 27.2345C30.932 26.3812 29.373 25.8988 27.7691 25.8359C26.9506 25.8298 26.1433 26.0259 25.4195 26.4065C23.3047 27.5317 22.0669 30.2502 22.0669 34.055V50.6565C22.0738 50.7674 22.1064 50.8752 22.1622 50.9714C22.218 51.0676 22.2954 51.1497 22.3884 51.2111L21.9027 52.3591L21.793 52.2964C21.6256 52.1734 21.4754 52.0288 21.3463 51.8664C21.0337 51.479 20.8525 51.003 20.8291 50.5067V34.0592C20.8291 29.6567 22.3961 26.5987 24.8631 25.3016C27.0018 24.1765 29.8372 24.3704 32.9397 26.1686C36.4276 28.1607 39.5667 31.7775 41.7683 35.9421C42.2801 36.9015 42.7404 37.8873 43.1473 38.8951C44.3555 41.7887 45.0049 44.883 45.0614 48.0159V65.3363H44.819C44.5062 65.3174 44.2013 65.2307 43.9257 65.0823L43.44 63.3712Z" fill="#407BFF"/>
<path opacity="0.1" d="M43.44 63.3712C43.4715 63.3961 43.5099 63.4109 43.55 63.4137C43.5902 63.4165 43.6303 63.4072 43.665 63.387C43.6997 63.3668 43.7275 63.3366 43.7448 63.3004C43.762 63.2642 43.7678 63.2237 43.7615 63.1841V48.0159C43.7051 45.0986 43.1076 42.2169 41.9989 39.5157L41.9283 39.3515C41.5011 38.2813 41.0094 37.2377 40.4557 36.2266C38.317 32.2974 35.4187 29.0302 32.2889 27.2345C30.932 26.3812 29.373 25.8988 27.7691 25.8359C26.9506 25.8298 26.1433 26.0259 25.4195 26.4065C23.3047 27.5317 22.0669 30.2502 22.0669 34.055V50.6565C22.0738 50.7674 22.1064 50.8752 22.1622 50.9714C22.218 51.0676 22.2954 51.1497 22.3884 51.2111L21.9027 52.3591L21.793 52.2964C21.6256 52.1734 21.4754 52.0288 21.3463 51.8664C21.0337 51.479 20.8525 51.003 20.8291 50.5067V34.0592C20.8291 29.6567 22.3961 26.5987 24.8631 25.3016C27.0018 24.1765 29.8372 24.3704 32.9397 26.1686C36.4276 28.1607 39.5667 31.7775 41.7683 35.9421C42.2801 36.9015 42.7404 37.8873 43.1473 38.8951C44.3555 41.7887 45.0049 44.883 45.0614 48.0159V65.3363H44.819C44.5062 65.3174 44.2013 65.2307 43.9257 65.0823L43.44 63.3712Z" fill="black"/>
</svg>
