<svg width="80" height="69" viewBox="0 0 80 69" fill="none" xmlns="http://www.w3.org/2000/svg">
<path d="M40.6122 68.0206L12.9056 50.326L0.692871 54.2324L40.6122 68.0206Z" fill="#407BFF"/>
<path d="M40.6121 68.0212L16.6648 48.1L21.9834 41.9755L40.6121 68.0212Z" fill="#407BFF"/>
<path d="M16.6658 48.0995V52.7246L40.6131 68.0215L16.6658 48.0995Z" fill="#407BFF"/>
<path opacity="0.25" d="M16.6658 48.0995V52.7246L40.6131 68.0215L16.6658 48.0995Z" fill="black"/>
<path d="M12.6707 47.7171C12.7891 47.7171 12.9048 47.6816 13.0026 47.6152C13.1004 47.5488 13.1758 47.4546 13.2189 47.3449C13.2621 47.2352 13.2711 47.1151 13.2446 47.0002C13.2181 46.8854 13.1575 46.7812 13.0706 46.7011C12.2496 45.9438 11.4924 45.1207 10.8068 44.24C10.7121 44.1165 10.5719 44.0355 10.4171 44.0149C10.2624 43.9942 10.1057 44.0356 9.98163 44.1299C9.85754 44.2242 9.77617 44.3637 9.75543 44.5178C9.73469 44.6718 9.77628 44.8277 9.87104 44.9512C10.597 45.8848 11.3988 46.7575 12.2683 47.5605C12.3788 47.6598 12.5219 47.7155 12.6707 47.7171ZM8.26067 41.8813C8.35329 41.8829 8.44483 41.8613 8.52693 41.8186C8.59543 41.7842 8.65639 41.7366 8.70633 41.6786C8.75627 41.6206 8.79419 41.5534 8.81791 41.4808C8.84163 41.4081 8.85069 41.3315 8.84455 41.2554C8.83841 41.1793 8.81719 41.1051 8.78214 41.0372C8.09791 39.677 7.57218 38.2433 7.21515 36.7643C7.17872 36.6134 7.08353 36.483 6.95056 36.402C6.81758 36.3209 6.65771 36.2958 6.5061 36.332C6.35448 36.3683 6.22353 36.463 6.14209 36.5954C6.06065 36.7277 6.03535 36.8868 6.07179 37.0377C6.44113 38.6042 6.99332 40.1224 7.71707 41.5613C7.76735 41.6601 7.84484 41.7426 7.94049 41.7993C8.03614 41.856 8.14598 41.8844 8.25725 41.8813H8.26067ZM6.11434 33.6233C6.19163 33.6202 6.26755 33.602 6.33776 33.5697C6.40797 33.5374 6.47109 33.4916 6.52349 33.435C6.57589 33.3783 6.61652 33.312 6.64309 33.2397C6.66967 33.1674 6.68166 33.0906 6.67835 33.0137C6.67835 32.6937 6.67835 32.3812 6.67835 32.068C6.67887 30.8611 6.78103 29.6563 6.98376 28.4664C6.99666 28.3907 6.99443 28.3131 6.97722 28.2382C6.96 28.1633 6.92813 28.0925 6.88342 28.0298C6.83871 27.9671 6.78204 27.9139 6.71664 27.873C6.65124 27.8321 6.57839 27.8045 6.50225 27.7917C6.42612 27.7788 6.34819 27.781 6.27291 27.7982C6.19763 27.8153 6.12649 27.847 6.06353 27.8915C6.00057 27.936 5.94703 27.9924 5.90597 28.0575C5.86491 28.1226 5.83715 28.1951 5.82424 28.2709C5.61222 29.5256 5.50467 30.7956 5.50269 32.068V33.0602C5.50564 33.1371 5.52378 33.2126 5.55609 33.2825C5.5884 33.3523 5.63423 33.4151 5.69096 33.4674C5.74769 33.5196 5.81421 33.5601 5.88671 33.5867C5.95921 33.6133 6.03627 33.6255 6.11348 33.6224L6.11434 33.6233ZM7.37508 25.1781C7.49807 25.1779 7.61791 25.1394 7.71772 25.0678C7.81752 24.9963 7.89227 24.8954 7.93143 24.7793C8.43791 23.3393 9.07517 21.9482 9.83531 20.6232C9.90322 20.4892 9.91836 20.3348 9.87776 20.1902C9.83716 20.0456 9.74373 19.9214 9.61584 19.8418C9.48176 19.7725 9.32622 19.7565 9.18075 19.7971C9.03527 19.8376 8.91074 19.9317 8.83234 20.0602C8.038 21.4494 7.37445 22.9087 6.85019 24.4195C6.81921 24.4941 6.80404 24.5743 6.80561 24.655C6.80718 24.7357 6.82547 24.8152 6.85933 24.8885C6.89318 24.9619 6.94188 25.0275 7.00237 25.0812C7.06287 25.135 7.13385 25.1758 7.2109 25.201C7.26831 25.1993 7.32536 25.1914 7.38102 25.1773L7.37508 25.1781ZM11.4967 17.671C11.586 17.6707 11.674 17.65 11.754 17.6107C11.8341 17.5714 11.9041 17.5144 11.9587 17.4442C12.8983 16.2319 13.9301 15.0932 15.045 14.0382C15.1172 13.992 15.1784 13.9308 15.2243 13.8587C15.2702 13.7866 15.2997 13.7054 15.3107 13.6207C15.3218 13.5361 15.3142 13.4501 15.2883 13.3687C15.2625 13.2873 15.2191 13.2125 15.1612 13.1495C15.1033 13.0866 15.0322 13.037 14.953 13.0042C14.8739 12.9714 14.7884 12.9563 14.7027 12.9598C14.617 12.9633 14.5332 12.9854 14.4569 13.0246C14.3807 13.0637 14.314 13.119 14.2615 13.1864C13.1029 14.2838 12.0294 15.4668 11.0501 16.7254C10.9675 16.8459 10.933 16.9927 10.9533 17.1372C10.9736 17.2817 11.0472 17.4134 11.1599 17.5068C11.2527 17.5987 11.3742 17.6566 11.5044 17.671H11.4967ZM17.6303 11.671C17.7574 11.6715 17.8812 11.6305 17.9825 11.5541C19.2166 10.6298 20.5064 9.78161 21.8447 9.01425C21.973 8.93499 22.0662 8.8102 22.1055 8.66512C22.1449 8.52005 22.1273 8.36552 22.0565 8.23281C21.9797 8.10253 21.8546 8.00746 21.7081 7.96804C21.5616 7.92862 21.4054 7.94799 21.273 8.022C19.8939 8.81235 18.5649 9.68631 17.2934 10.6389C17.1945 10.7126 17.1214 10.8154 17.0845 10.9327C17.0475 11.0501 17.0486 11.176 17.0875 11.2927C17.1265 11.4094 17.2014 11.5109 17.3015 11.5829C17.4017 11.6549 17.5221 11.6937 17.6456 11.6938L17.6303 11.671ZM79.1933 9.40539C79.3233 9.40638 79.4501 9.36446 79.5537 9.28619C79.6573 9.20791 79.7319 9.09769 79.7659 8.97273C79.8 8.84778 79.7914 8.71513 79.7417 8.59551C79.692 8.47589 79.6038 8.37604 79.491 8.31155C78.1299 7.53011 76.7177 6.79608 75.2843 6.11623C75.1785 6.06882 75.061 6.05321 74.9464 6.07132C74.8318 6.08944 74.725 6.14048 74.6391 6.21819C74.5533 6.2959 74.4921 6.39688 74.4631 6.50873C74.4342 6.62057 74.4387 6.7384 74.4761 6.84773C74.5024 6.92057 74.5431 6.98742 74.5959 7.04428C74.6486 7.10115 74.7123 7.14688 74.7832 7.17876C76.1852 7.84252 77.5718 8.5613 78.904 9.3275C78.9944 9.37975 79.0973 9.40667 79.2018 9.40539H79.1933ZM25.017 7.30406C25.1038 7.30549 25.1898 7.28664 25.2679 7.24903C26.6622 6.57681 28.0957 5.95961 29.5368 5.40507C29.6105 5.37588 29.6778 5.33253 29.7347 5.27749C29.7916 5.22244 29.837 5.15678 29.8684 5.08426C29.8998 5.01173 29.9165 4.93377 29.9177 4.8548C29.9188 4.77584 29.9043 4.69743 29.8749 4.62405C29.8456 4.55067 29.8021 4.48376 29.7468 4.42713C29.6914 4.37051 29.6255 4.32528 29.5526 4.29403C29.4797 4.26278 29.4014 4.24612 29.322 4.245C29.2427 4.24388 29.1639 4.25833 29.0902 4.28752C27.6253 4.84968 26.1603 5.48296 24.7346 6.17042C24.617 6.22934 24.5226 6.3258 24.4666 6.44437C24.4105 6.56294 24.396 6.69678 24.4254 6.8245C24.4548 6.95222 24.5264 7.06645 24.6287 7.14894C24.731 7.23142 24.8581 7.27739 24.9898 7.27951L25.017 7.30406ZM71.4459 5.74118C71.5642 5.73914 71.6794 5.7025 71.777 5.63581C71.8745 5.56911 71.9502 5.47533 71.9946 5.36613C72.0261 5.29284 72.0424 5.21391 72.0422 5.13418C72.042 5.05445 72.0255 4.9756 71.9936 4.90244C71.9618 4.82928 71.9152 4.76337 71.8569 4.70873C71.7986 4.65409 71.7296 4.61188 71.6543 4.58468C70.1894 4.01405 68.6769 3.49084 67.166 3.0218C67.0161 2.97689 66.8544 2.9931 66.7165 3.06685C66.5785 3.1406 66.4757 3.26586 66.4306 3.41506C66.3854 3.56427 66.4017 3.7252 66.4758 3.86246C66.5499 3.99972 66.6758 4.10207 66.8257 4.14698C68.306 4.58468 69.787 5.10028 71.2205 5.65482C71.2902 5.68243 71.3649 5.69568 71.44 5.69377L71.4459 5.74118ZM33.0621 4.1783C33.1183 4.18917 33.176 4.18917 33.2322 4.1783C34.7048 3.73298 36.2165 3.34268 37.7282 3.01419C37.8829 2.97477 38.0159 2.87644 38.0985 2.74039C38.1811 2.60434 38.2067 2.44144 38.1698 2.2868C38.1329 2.13215 38.0364 1.99811 37.9011 1.91358C37.7659 1.82904 37.6026 1.80076 37.4466 1.83483C35.8796 2.17348 34.3603 2.56886 32.8528 3.03027C32.7786 3.0527 32.7095 3.08952 32.6496 3.13861C32.5897 3.18769 32.5402 3.24808 32.5038 3.31629C32.4674 3.38451 32.445 3.45921 32.4377 3.5361C32.4305 3.61298 32.4386 3.69053 32.4615 3.7643C32.4995 3.88379 32.5745 3.98823 32.6758 4.06262C32.7772 4.137 32.8996 4.17751 33.0255 4.1783H33.0621ZM63.2196 3.15557C63.3522 3.15535 63.4809 3.11047 63.5847 3.02824C63.6885 2.946 63.7613 2.83125 63.7912 2.70262C63.8244 2.5506 63.7961 2.39171 63.7126 2.26024C63.629 2.12878 63.4968 2.03528 63.3446 1.99992C61.8134 1.64857 60.2506 1.3514 58.6836 1.12535C58.6047 1.10813 58.5231 1.10726 58.4438 1.1228C58.3645 1.13833 58.2893 1.16995 58.2228 1.21567C58.1564 1.26139 58.1001 1.32024 58.0574 1.38856C58.0148 1.45687 57.9868 1.53319 57.9751 1.61275C57.9633 1.69232 57.9682 1.77343 57.9894 1.85103C58.0105 1.92864 58.0475 2.00108 58.098 2.06385C58.1485 2.12661 58.2115 2.17836 58.283 2.21587C58.3545 2.25337 58.4329 2.27583 58.5135 2.28185C60.0805 2.50874 61.5845 2.79745 63.0886 3.1488L63.2196 3.15557ZM41.4271 2.2573H41.5121C43.0434 2.0304 44.5985 1.867 46.1417 1.7654C46.2236 1.7675 46.305 1.75258 46.3807 1.72159C46.4565 1.6906 46.5249 1.64422 46.5816 1.58541C46.6383 1.52661 46.682 1.45668 46.71 1.38009C46.7381 1.3035 46.7497 1.22194 46.7442 1.14062C46.7388 1.05929 46.7163 0.980004 46.6783 0.907811C46.6403 0.835618 46.5876 0.772111 46.5235 0.721351C46.4594 0.670592 46.3854 0.633697 46.3062 0.613023C46.227 0.592348 46.1443 0.588351 46.0634 0.601286C44.497 0.702882 42.9303 0.866847 41.3633 1.09318C41.218 1.11661 41.0868 1.19335 40.9956 1.30826C40.9044 1.42317 40.8597 1.56792 40.8704 1.71399C40.881 1.86006 40.9463 1.99687 41.0533 2.09743C41.1603 2.19799 41.3012 2.25502 41.4484 2.2573H41.4271ZM54.6811 1.83398C54.8337 1.83452 54.9806 1.7761 55.0909 1.67101C55.2011 1.56593 55.2661 1.42238 55.2722 1.27057C55.2783 1.11876 55.2249 0.970526 55.1234 0.857067C55.0219 0.743608 54.8801 0.673764 54.7278 0.662242C53.1608 0.536941 51.5556 0.466675 49.9809 0.466675C49.8248 0.466675 49.6751 0.5284 49.5647 0.638272C49.4543 0.748143 49.3922 0.897162 49.3922 1.05254C49.3922 1.20793 49.4543 1.35694 49.5647 1.46682C49.6751 1.57669 49.8248 1.63841 49.9809 1.63841C51.5479 1.63841 53.1141 1.70868 54.6343 1.83398H54.6811Z" fill="#E0E0E0"/>
</svg>
