<svg width="76" height="50" viewBox="0 0 76 50" fill="none" xmlns="http://www.w3.org/2000/svg">
<path d="M3.25064 24.0763L9.22003 27.5136C9.18937 27.2542 9.17375 26.9933 9.17324 26.7321V25.0135C9.17324 21.9436 11.3349 20.7007 13.9984 22.2323C15.1415 22.9391 16.1212 23.8789 16.873 24.9898C17.3034 21.1308 20.343 19.6933 24.0325 21.8183C28.0121 24.1152 31.2473 29.692 31.2473 34.3179V36.8959C31.2731 37.9264 31.0643 38.9492 30.6365 39.8879L35.5953 42.7394C36.3734 43.2483 37.0205 43.9319 37.4844 44.7353C37.9484 45.5387 38.2163 46.4393 38.2665 47.3645C38.2665 49.0679 37.0678 49.7554 35.5953 48.9274L3.25064 30.2711C2.47283 29.7639 1.82577 29.0818 1.36175 28.2798C0.897723 27.4778 0.629737 26.5785 0.579426 25.6544C0.556457 23.9196 1.7551 23.2398 3.25064 24.0763Z" fill="#F0F0F0"/>
<path d="M32.1243 4.49042L39.4719 8.71765C39.4317 8.39633 39.4106 8.07291 39.4089 7.7491V5.59105C39.4089 1.81762 42.0648 0.286057 45.3468 2.17743C46.7571 3.04099 47.9645 4.19587 48.8875 5.56395C49.42 0.814354 53.1563 -0.955102 57.6999 1.6576C62.6034 4.48534 66.583 11.3608 66.583 16.9816V20.1531C66.605 21.4228 66.3371 22.6809 65.7995 23.8325L71.9016 27.3477C72.8613 27.9717 73.6599 28.8117 74.2329 29.7997C74.8059 30.7878 75.1371 31.8963 75.1998 33.0354C75.1998 35.1367 73.7195 35.9808 71.9016 34.9336L32.0937 12.0254C31.1327 11.4029 30.333 10.5633 29.7599 9.57487C29.1867 8.58649 28.8563 7.47733 28.7955 6.33777C28.827 4.25675 30.2996 3.41351 32.1243 4.49042Z" fill="#F0F0F0"/>
</svg>
