<svg width="323" height="149" viewBox="0 0 323 149" fill="none" xmlns="http://www.w3.org/2000/svg">
<path d="M278.201 81.5724C268.078 87.4006 268.078 96.8532 278.201 102.665C288.325 108.477 304.749 108.494 314.878 102.665C325.006 96.8371 325.006 87.3769 314.878 81.5724C304.749 75.7679 288.385 75.7366 278.201 81.5724Z" fill="#E0E0E0"/>
<path d="M256.001 94.9708L164.146 147.86C163.096 148.391 161.934 148.668 160.755 148.668C159.576 148.668 158.414 148.391 157.363 147.86L1.86863 58.3304C-0.00292171 57.2526 -0.00292171 55.5026 1.86863 54.424L93.7235 1.52656C94.7743 0.995053 95.9364 0.718018 97.1152 0.718018C98.294 0.718018 99.4561 0.995053 100.507 1.52656L256.001 91.0645C257.881 92.1422 257.881 93.8922 256.001 94.9708Z" fill="#E0E0E0"/>
</svg>
