<svg width="39" height="71" viewBox="0 0 39 71" fill="none" xmlns="http://www.w3.org/2000/svg">
<path d="M29.1775 60.3629L35.5773 56.6758C35.5773 56.6758 39.3919 40.887 37.8742 26.6839C35.7355 6.71531 24.9648 -1.97958 17.5424 0.903192C12.6083 2.84028 11.077 8.43821 19.3756 20.3325C24.2663 27.3714 30.274 41.98 29.1775 60.3629Z" fill="#407BFF"/>
<g opacity="0.3">
<path d="M29.1784 60.3629L35.5783 56.6758C35.5783 56.6758 39.3928 40.887 37.8752 26.6839C35.7365 6.71531 24.9657 -1.97958 17.5434 0.903192C12.6093 2.84028 11.078 8.43821 19.3766 20.3325C24.2673 27.3714 30.275 41.98 29.1784 60.3629Z" fill="black"/>
</g>
<path d="M31.8334 52.6431H31.7483C31.691 52.6327 31.6363 52.611 31.5875 52.5793C31.5386 52.5476 31.4966 52.5066 31.4638 52.4586C31.4311 52.4107 31.4082 52.3567 31.3966 52.2999C31.385 52.243 31.3848 52.1844 31.3961 52.1275C34.9053 33.7142 28.451 13.0132 20.4297 4.40213C20.3495 4.31523 20.3073 4.20018 20.3123 4.08229C20.3173 3.9644 20.3692 3.85332 20.4565 3.7735C20.5438 3.69367 20.6594 3.65165 20.7779 3.65665C20.8963 3.66165 21.0079 3.71328 21.0881 3.80018C29.2192 12.5738 35.7994 33.6016 32.2324 52.2909C32.215 52.3856 32.1661 52.4718 32.0936 52.5355C32.0211 52.5992 31.9291 52.6368 31.8326 52.6423L31.8334 52.6431Z" fill="white"/>
<path d="M12.4144 70.0181C11.4037 70.5261 8.71719 68.2292 7.96516 67.6746C6.68172 66.7037 5.67027 65.421 5.02768 63.9495C4.31208 62.2758 4.1338 60.4229 4.51725 58.6445C4.71365 57.7056 4.97547 56.7813 5.30077 55.8786L6.21697 53.2066C6.57982 52.3461 6.7636 51.4213 6.75718 50.4881C6.61596 48.6128 5.02598 47.2302 3.57638 46.0348C2.00938 44.7064 0.333484 42.9801 0.443225 40.7459C0.652886 39.0154 1.43245 37.4027 2.66018 36.1597C3.79587 34.8626 5.13573 33.7299 6.17699 32.3498C6.98927 31.3897 7.44811 30.1825 7.47771 28.9278C7.41348 28.1548 7.19237 27.4028 6.82777 26.7172C5.98794 25.2877 5.26479 23.7934 4.66528 22.2487C4.19484 20.6858 4.3752 18.7098 5.6521 17.6549C6.80216 16.8916 8.20843 16.6108 9.56535 16.8734C10.8312 17.0939 12.0339 17.585 13.0907 18.3127C16.553 20.4691 18.3701 24.781 22.0758 26.4844C23.5494 27.0275 25.0551 27.4799 26.5845 27.839C27.3516 28.0197 28.0722 28.3585 28.6996 28.8334C29.327 29.3084 29.8475 29.909 30.2273 30.5965C31.4804 33.4327 28.7309 36.7058 29.5612 39.6901C30.2894 42.3308 32.7649 43.4475 34.0656 45.8621C34.5986 46.9221 34.7717 48.1255 34.5591 49.2917C34.3374 51.2687 33.7532 53.1885 32.8355 54.9557C31.806 56.7728 30.6626 58.5237 29.4123 60.1981C29.4123 60.1981 12.5709 69.9402 12.4144 70.0181Z" fill="#407BFF"/>
<g opacity="0.15">
<path d="M12.4144 70.0181C11.4037 70.5261 8.71719 68.2292 7.96516 67.6746C6.68172 66.7037 5.67027 65.421 5.02768 63.9495C4.31208 62.2758 4.1338 60.4229 4.51725 58.6445C4.71365 57.7056 4.97547 56.7813 5.30077 55.8786L6.21697 53.2066C6.57982 52.3461 6.7636 51.4213 6.75718 50.4881C6.61596 48.6128 5.02598 47.2302 3.57638 46.0348C2.00938 44.7064 0.333484 42.9801 0.443225 40.7459C0.652886 39.0154 1.43245 37.4027 2.66018 36.1597C3.79587 34.8626 5.13573 33.7299 6.17699 32.3498C6.98927 31.3897 7.44811 30.1825 7.47771 28.9278C7.41348 28.1548 7.19237 27.4028 6.82777 26.7172C5.98794 25.2877 5.26479 23.7934 4.66528 22.2487C4.19484 20.6858 4.3752 18.7098 5.6521 17.6549C6.80216 16.8916 8.20843 16.6108 9.56535 16.8734C10.8312 17.0939 12.0339 17.585 13.0907 18.3127C16.553 20.4691 18.3701 24.781 22.0758 26.4844C23.5494 27.0275 25.0551 27.4799 26.5845 27.839C27.3516 28.0197 28.0722 28.3585 28.6996 28.8334C29.327 29.3084 29.8475 29.909 30.2273 30.5965C31.4804 33.4327 28.7309 36.7058 29.5612 39.6901C30.2894 42.3308 32.7649 43.4475 34.0656 45.8621C34.5986 46.9221 34.7717 48.1255 34.5591 49.2917C34.3374 51.2687 33.7532 53.1885 32.8355 54.9557C31.806 56.7728 30.6626 58.5237 29.4123 60.1981C29.4123 60.1981 12.5709 69.9402 12.4144 70.0181Z" fill="black"/>
</g>
<path d="M22.2145 64.9245C22.1557 64.9195 22.0985 64.903 22.0462 64.8759C21.9939 64.8488 21.9474 64.8117 21.9095 64.7667C21.8717 64.7217 21.8431 64.6697 21.8255 64.6136C21.8079 64.5576 21.8016 64.4987 21.807 64.4402C23.4284 46.9251 16.1124 27.1284 10.3701 21.191C10.3212 21.1515 10.2813 21.1021 10.2529 21.0462C10.2245 20.9902 10.2083 20.9289 10.2054 20.8663C10.2025 20.8037 10.213 20.7412 10.2361 20.6829C10.2592 20.6246 10.2944 20.5718 10.3394 20.5279C10.3845 20.4841 10.4383 20.4503 10.4974 20.4287C10.5566 20.407 10.6196 20.3981 10.6824 20.4024C10.7452 20.4068 10.8064 20.4243 10.862 20.4538C10.9175 20.4833 10.9662 20.5242 11.0048 20.5738C16.8746 26.628 24.3217 46.7609 22.6926 64.5139C22.6828 64.6306 22.6271 64.7389 22.5376 64.815C22.448 64.8911 22.3319 64.9289 22.2145 64.9203V64.9245Z" fill="white"/>
<path d="M20.4679 43.3232H20.3344C16.2248 41.9627 11.9766 41.0586 7.66736 40.6276C7.55004 40.6156 7.44222 40.558 7.36735 40.4673C7.29247 40.3766 7.25662 40.2602 7.26755 40.1433C7.27049 40.0851 7.28545 40.0281 7.31153 39.9759C7.33762 39.9238 7.37426 39.8775 7.41914 39.8401C7.46402 39.8026 7.51619 39.7748 7.57237 39.7584C7.62855 39.742 7.68753 39.7372 7.74563 39.7445C12.131 40.1899 16.4546 41.1093 20.6398 42.4868C20.737 42.5251 20.8177 42.5961 20.8678 42.6875C20.9179 42.7788 20.9342 42.8848 20.914 42.9869C20.8938 43.089 20.8383 43.1809 20.7571 43.2465C20.6759 43.3121 20.5742 43.3474 20.4696 43.3461L20.4679 43.3232Z" fill="white"/>
</svg>
