<svg width="112" height="174" viewBox="0 0 112 174" fill="none" xmlns="http://www.w3.org/2000/svg">
<path d="M111.544 88.9116L7.06015 28.7568L2.87724 31.163C2.30683 31.5357 1.83197 32.0361 1.4906 32.6241C1.14923 33.2122 0.950828 33.8715 0.911255 34.5495V111.424C0.94957 112.102 1.14744 112.762 1.48892 113.35C1.8304 113.938 2.30595 114.438 2.87724 114.81L103.431 172.699C104.037 173.004 104.707 173.163 105.387 173.163C106.067 173.163 106.737 173.004 107.344 172.699L109.561 171.429C110.131 171.057 110.606 170.556 110.947 169.968C111.289 169.38 111.487 168.721 111.527 168.043L111.544 88.9116Z" fill="#407BFF"/>
<path opacity="0.2" d="M111.544 88.9116L7.06015 28.7568L2.87724 31.163C2.30683 31.5357 1.83197 32.0361 1.4906 32.6241C1.14923 33.2122 0.950828 33.8715 0.911255 34.5495V111.424C0.94957 112.102 1.14744 112.762 1.48892 113.35C1.8304 113.938 2.30595 114.438 2.87724 114.81L103.431 172.699C104.037 173.004 104.707 173.163 105.387 173.163C106.067 173.163 106.737 173.004 107.344 172.699L109.561 171.429C110.131 171.057 110.606 170.556 110.947 169.968C111.289 169.38 111.487 168.721 111.527 168.043L111.544 88.9116Z" fill="black"/>
<path d="M7.63176 21.991L7.20641 21.7565L8.82784 20.8193C8.96418 20.7375 9.10838 20.6694 9.2583 20.6161L55.2414 3.61663C55.8744 3.41098 56.5564 3.40901 57.1906 3.61099C57.8248 3.81296 58.379 4.20862 58.7744 4.7418L110.209 79.6542C111.014 80.9444 111.472 82.4186 111.54 83.9356V88.9019L109.973 89.8332L7.09155 28.7488V23.7723C7.09978 23.1398 7.28702 22.5225 7.63176 21.991Z" fill="#407BFF"/>
<path opacity="0.1" d="M56.646 5.11633C56.8507 5.27617 57.0302 5.46567 57.1785 5.67849L108.621 80.5909C109.043 81.2536 109.365 81.9748 109.576 82.7312L111.143 81.8092C111.027 81.4238 110.888 81.0455 110.728 80.6764C110.657 80.5198 110.587 80.3716 110.508 80.2234L110.469 80.1532C110.388 79.9965 110.296 79.8452 110.195 79.7002L58.7642 4.78784C58.6878 4.67702 58.6024 4.57254 58.509 4.47543L58.2351 4.22144L56.646 5.11633Z" fill="black"/>
<path opacity="0.35" d="M7.22522 21.7482C7.36431 21.6639 7.51132 21.5933 7.66418 21.5374L53.6541 4.53789C54.1598 4.37006 54.7001 4.33361 55.2239 4.43199C55.7477 4.53038 56.2375 4.76033 56.6469 5.10004L58.2139 4.17807C57.8012 3.84165 57.3101 3.61386 56.7858 3.51563C56.2615 3.4174 55.7209 3.45188 55.2135 3.6159L9.23118 20.6078C9.08107 20.6638 8.93688 20.7344 8.80072 20.8186L7.22522 21.7482Z" fill="white"/>
<path d="M110.744 80.6287C110.673 80.4721 110.603 80.3239 110.525 80.1758C110.603 80.3239 110.673 80.473 110.744 80.6287Z" fill="#407BFF"/>
<path opacity="0.2" d="M58.7771 4.74112C58.6986 4.63178 58.6134 4.52744 58.5219 4.42871C58.6171 4.52418 58.7026 4.62883 58.7771 4.74112Z" fill="black"/>
<path d="M57.1794 5.662L108.622 80.5744C109.42 81.8668 109.876 83.3401 109.945 84.8558V89.8323L5.46252 29.6775V24.7086C5.49931 24.0351 5.725 23.3854 6.11399 22.833C6.50298 22.2807 7.0397 21.8479 7.66329 21.5837L53.6532 4.54529C54.2839 4.3342 54.9658 4.32866 55.5999 4.52947C56.234 4.73027 56.7873 5.12698 57.1794 5.662Z" fill="#407BFF"/>
<path opacity="0.05" d="M5.46249 24.6933C5.48341 24.0703 5.67586 23.465 6.01885 22.9434L109.578 82.7154C109.798 83.4034 109.919 84.1188 109.938 84.8405V89.817L5.45483 29.6622L5.46249 24.6933Z" fill="black"/>
<path d="M9.92796 3.55384C9.90693 3.34527 9.94062 3.13484 10.0258 2.94311C10.1109 2.75138 10.2446 2.58492 10.4137 2.46L13.6098 0.62365C13.8029 0.537073 14.0155 0.503054 14.2261 0.525068C14.4367 0.547083 14.6377 0.624337 14.8085 0.748947L100.506 50.1185C101.001 50.4391 101.413 50.8715 101.709 51.3805C102.005 51.8895 102.175 52.4608 102.207 53.0478V155.386C102.23 155.595 102.197 155.807 102.11 156C102.023 156.192 101.886 156.358 101.714 156.48L98.5331 158.315C98.3404 158.401 98.1284 158.436 97.9182 158.415C97.7079 158.395 97.5067 158.32 97.3345 158.198L11.62 108.864C11.1274 108.541 10.7177 108.108 10.4238 107.599C10.13 107.09 9.96013 106.52 9.92796 105.934V3.55384Z" fill="#F0F0F0"/>
<path d="M97.326 158.237L11.62 108.864C11.1274 108.541 10.7177 108.108 10.4238 107.599C10.13 107.09 9.96014 106.52 9.92798 105.934V3.55376C9.92798 2.476 10.7115 2.03829 11.62 2.57759L97.326 51.9438C97.8186 52.2663 98.2283 52.6994 98.5221 53.2081C98.816 53.7169 98.9859 54.2871 99.018 54.8731V157.214C99.018 158.315 98.2583 158.757 97.326 158.237Z" fill="#FAFAFA"/>
<path d="M99.0248 157.237C99.0401 157.428 99.0122 157.62 98.943 157.798C98.8737 157.977 98.7651 158.138 98.6249 158.269L101.704 156.503C101.878 156.382 102.016 156.217 102.104 156.024C102.192 155.832 102.227 155.62 102.205 155.41V53.0672C102.185 52.4788 102.013 51.9055 101.704 51.4036L98.5228 53.2314C98.8323 53.7363 99.005 54.3124 99.0239 54.9035L99.0248 157.237Z" fill="#E0E0E0"/>
<path d="M3.55859 112.441C3.58978 112.497 3.62655 112.55 3.66833 112.598L47.2142 98.8641C48.8679 98.1367 50.73 98.0286 52.4575 98.5598C54.1849 99.0909 55.6613 100.226 56.6145 101.754L103.168 170.737L104.892 171.729C105.084 171.863 105.306 171.946 105.539 171.972C105.771 171.998 106.007 171.966 106.223 171.877L58.3525 100.785C57.3959 99.2597 55.92 98.1275 54.1941 97.5955C52.4683 97.0634 50.6077 97.1669 48.9522 97.8871L3.55859 112.441Z" fill="#407BFF"/>
<path opacity="0.4" d="M60.9081 108.488L60.7983 108.394L103.172 170.737L104.895 171.729C105.088 171.861 105.31 171.943 105.543 171.969C105.775 171.995 106.01 171.963 106.227 171.877L62.584 107.457L60.9081 108.488Z" fill="white"/>
<path opacity="0.4" d="M3.55859 112.441C3.58978 112.497 3.62655 112.549 3.66833 112.598L47.2142 98.8635C48.8676 98.1339 50.7304 98.0247 52.4585 98.556C54.1865 99.0874 55.6628 100.223 56.6145 101.754L58.338 100.754C57.3807 99.2296 55.9035 98.0995 54.1771 97.5708C52.4506 97.0422 50.5906 97.1503 48.9377 97.8755L3.55859 112.441Z" fill="white"/>
<path d="M0.950439 34.0604C1.04487 33.4982 1.34177 33.3416 1.73394 33.6075C1.92751 33.7516 2.09666 33.9257 2.235 34.123L2.45449 34.4278L45.4168 99.5667L51.8328 108.481C52.2455 109 52.7926 109.397 53.4151 109.629C54.0375 109.862 54.712 109.921 55.3658 109.801L60.9038 108.488L103.204 92.9732C103.489 92.9153 103.782 92.9153 104.066 92.9732C104.177 92.9954 104.284 93.0294 104.388 93.0748L102.821 92.1528L62.2939 106.996L56.9591 108.894C56.3053 109.017 55.6302 108.958 55.0073 108.726C54.3844 108.493 53.8375 108.095 53.4262 107.574L47.0101 98.6684L3.83178 33.2239C3.70021 33.0457 3.53525 32.8945 3.34602 32.7786L7.08231 30.6299L5.51873 29.7324L2.93343 31.2166C2.42946 31.5355 1.99451 31.9513 1.65401 32.4396C1.31351 32.9279 1.07432 33.4789 0.950439 34.0604Z" fill="#407BFF"/>
<path opacity="0.4" d="M45.4209 99.5669L51.8369 108.481C52.2497 109 52.7967 109.397 53.4192 109.629C54.0417 109.862 54.7161 109.921 55.3699 109.801L60.908 108.489L60.7982 108.395L60.532 107.971L56.9054 108.831C56.2515 108.953 55.5765 108.895 54.9536 108.662C54.3306 108.43 53.7838 108.031 53.3724 107.511L47.0194 98.6982L45.4209 99.5669Z" fill="white"/>
<path opacity="0.1" d="M2.87889 31.1463L5.46418 29.6621L7.03119 30.5604L3.29489 32.7091C3.48538 32.8234 3.6506 32.9749 3.78063 33.1545L46.959 98.599L47.022 98.6836L45.455 99.5506L2.48843 34.4041L2.26895 34.0993C2.13063 33.9019 1.96145 33.7279 1.76787 33.5837C1.3842 33.3179 1.08731 33.4745 0.984375 34.0367C1.09201 33.4539 1.31501 32.8982 1.64039 32.402C1.96578 31.9058 2.38707 31.4789 2.87974 31.1463H2.87889Z" fill="black"/>
<path d="M102.3 94.2151L111.52 88.9102V168.041C111.48 168.719 111.282 169.379 110.941 169.967C110.599 170.555 110.124 171.055 109.554 171.428L107.337 172.698C106.73 173.003 106.06 173.162 105.38 173.162C104.701 173.162 104.03 173.003 103.424 172.698L102.318 172.065L102.3 94.2151Z" fill="#407BFF"/>
<path opacity="0.15" d="M102.3 94.2151L111.52 88.9102V168.041C111.48 168.719 111.282 169.379 110.941 169.967C110.599 170.555 110.124 171.055 109.554 171.428L107.337 172.698C106.73 173.003 106.06 173.162 105.38 173.162C104.701 173.162 104.03 173.003 103.424 172.698L102.318 172.065L102.3 94.2151Z" fill="black"/>
<path d="M0.911255 34.5525V111.418C0.935757 112.122 1.14646 112.806 1.52206 113.403C1.81406 113.906 2.20598 114.344 2.67392 114.692L2.75218 114.731C2.79203 114.762 2.8338 114.79 2.87724 114.816L103.431 172.705C103.623 172.841 103.846 172.927 104.08 172.954C104.314 172.982 104.552 172.95 104.77 172.861C104.937 172.764 105.078 172.628 105.181 172.465C105.283 172.302 105.344 172.116 105.358 171.924C105.367 171.807 105.367 171.69 105.358 171.573V94.6988C105.376 94.4236 105.327 94.1481 105.214 93.8962C105.101 93.6443 104.928 93.4234 104.711 93.2528C104.493 93.0821 104.237 92.9667 103.964 92.9166C103.692 92.8664 103.411 92.883 103.146 92.9649L60.846 108.48L55.3079 109.793C54.6541 109.913 53.9796 109.854 53.3572 109.621C52.7347 109.388 52.1876 108.991 51.7749 108.473L45.3589 99.5585L2.39233 34.4196L2.17285 34.1148C1.50675 33.1149 0.911255 33.3054 0.911255 34.5525Z" fill="#407BFF"/>
<path d="M2.87724 114.816L2.74367 114.732L2.67308 114.685C2.20356 114.343 1.8112 113.906 1.52122 113.404C1.15086 112.817 0.940357 112.144 0.9104 111.451L45.4125 99.5762L15.6455 122.146L2.87724 114.816Z" fill="#407BFF"/>
<path opacity="0.2" d="M2.87724 114.816L2.74367 114.732L2.67308 114.685C2.20356 114.343 1.8112 113.906 1.52122 113.404C1.15086 112.817 0.940357 112.144 0.9104 111.451L45.4125 99.5762L15.6455 122.146L2.87724 114.816Z" fill="black"/>
<path d="M105.394 171.573C105.423 171.823 105.381 172.077 105.273 172.304C105.165 172.532 104.995 172.725 104.783 172.863C104.565 172.953 104.328 172.987 104.094 172.961C103.86 172.935 103.636 172.85 103.443 172.714L68.8119 152.77L60.9004 108.481L105.392 170.292L105.394 171.573Z" fill="#407BFF"/>
<path opacity="0.15" d="M56.6384 101.707L104.783 172.861C104.995 172.724 105.165 172.53 105.273 172.303C105.381 172.075 105.423 171.822 105.394 171.572V170.302L58.3917 100.77L56.6384 101.707Z" fill="black"/>
<path d="M1.52209 113.401C1.81207 113.904 2.20442 114.34 2.67394 114.682L2.74455 114.729L103.428 172.706C103.62 172.842 103.844 172.926 104.079 172.952C104.313 172.978 104.55 172.944 104.768 172.854L56.618 101.692C55.656 100.155 54.1691 99.0162 52.4306 98.4838C50.6922 97.9513 48.8191 98.0613 47.1556 98.7935L1.52209 113.401Z" fill="#407BFF"/>
<path opacity="0.15" d="M111.175 81.793L109.608 82.715C109.83 83.4079 109.954 84.1282 109.977 84.8552V89.8241L111.544 88.9021V83.9256C111.521 83.2012 111.397 82.4835 111.175 81.793Z" fill="black"/>
<path d="M102.77 92.1215L104.367 93.0435L105.983 92.1122L109.955 89.8313L108.412 88.917L102.77 92.1215Z" fill="#407BFF"/>
<path opacity="0.1" d="M102.699 92.1521L108.41 88.918L109.977 89.8323L106.005 92.1132L104.388 93.0445L104.083 92.9505C103.799 92.8926 103.506 92.8926 103.221 92.9505L99.9469 94.1772L63.0433 107.732L62.464 106.88L102.699 92.1521Z" fill="black"/>
</svg>
