<svg width="549" height="316" viewBox="0 0 549 316" fill="none" xmlns="http://www.w3.org/2000/svg">
<path d="M496.324 315.437C520.645 285.967 552.283 207.233 505.506 119.531C454.956 24.7539 279.046 -38.0047 163.772 27.3047C48.4981 92.6142 72.1404 264.624 88.0004 315.436H496.324V315.437Z" fill="url(#paint0_linear_109_279)"/>
<path d="M39.1552 315.437C39.1552 315.437 22.8755 267.504 46.5 235.397C82.0328 187.106 160.689 233.888 214.732 192.276C268.775 150.664 369.029 97.4046 467.324 147.923C565.619 198.442 549.341 288.709 543.467 315.437H39.1552Z" fill="#14316C"/>
<path d="M20.6508 41.6278C37.0533 42.101 94.7298 42.2495 110.463 41.3503C126.195 40.4511 124.553 32.7693 116.008 31.8603C107.464 30.9513 110.8 23.2517 100.18 25.4877C89.5606 27.7237 86.9973 27.7192 77.1577 16.8542C67.3182 5.98913 50.0947 4.83645 43.7568 16.8542C39.3346 25.2386 37.4286 29.1227 28.4091 26.2526C19.3896 23.3824 13.9357 29.6617 11.288 32.8129C8.93459 35.6145 0.415809 34.6682 0.00668012 38.2899C-0.403338 41.9115 18.1889 41.5576 20.6508 41.6278Z" fill="url(#paint1_linear_109_279)"/>
<path d="M413.712 315.436C413.712 315.436 416.737 303.688 383.21 284.009C349.683 264.331 341.459 221.449 288.003 222.036C234.548 222.623 217.807 295.464 231.317 315.435H413.712V315.436Z" fill="url(#paint2_linear_109_279)"/>
<defs>
<linearGradient id="paint0_linear_109_279" x1="74.5932" y1="157.943" x2="529.57" y2="157.943" gradientUnits="userSpaceOnUse">
<stop offset="1" stop-color="#C2D7FF"/>
</linearGradient>
<linearGradient id="paint1_linear_109_279" x1="-0.000257281" y1="25.137" x2="122.398" y2="25.137" gradientUnits="userSpaceOnUse">
<stop offset="0.004" stop-color="#D8E3FF"/>
<stop offset="1" stop-color="#D2DFFF"/>
</linearGradient>
<linearGradient id="paint2_linear_109_279" x1="280.98" y1="347.182" x2="352.514" y2="247.28" gradientUnits="userSpaceOnUse">
<stop stop-color="#B6CCBD"/>
<stop offset="1" stop-color="#D1E7D9"/>
</linearGradient>
</defs>
</svg>
