<svg width="46" height="44" viewBox="0 0 46 44" fill="none" xmlns="http://www.w3.org/2000/svg">
<path d="M44.6634 24.2515L25.353 43.1949L23.6453 40.5174L41.9048 22.0426V21.9757L27.7832 7.38328L28.8341 4.37109L45.5173 21.8418L44.6634 24.2515Z" fill="white"/>
<path fill-rule="evenodd" clip-rule="evenodd" d="M14.5012 30.343C14.7051 29.6603 14.977 29.0459 15.2489 28.4314C16.4044 26.042 17.9678 23.9256 19.6671 21.9457C21.9101 19.4197 24.4251 17.1667 27.2799 15.3234C28.5034 14.5042 29.7949 13.8215 31.2223 13.3436C31.2902 13.2753 31.4262 13.2753 31.5621 13.207L30.7465 14.2311C29.8628 15.3234 28.9112 16.4158 28.1635 17.6446C28.0956 17.7812 28.0276 17.7812 27.8917 17.7812C27.3479 17.9177 26.7361 18.0543 26.1244 18.0543C26.3283 18.3274 26.6682 18.4639 26.9401 18.6004C27.076 18.6687 27.3479 18.6687 27.4159 18.8735C27.4159 19.0101 27.2119 19.2149 27.144 19.3514C27.008 19.6928 26.7361 19.8976 26.3963 19.9659C25.8525 20.1024 25.3087 20.2389 24.697 20.2389C24.697 20.3755 24.765 20.3755 24.8329 20.4438C25.1728 20.7168 25.5806 20.9216 25.9885 21.0582C26.1244 21.1265 26.1244 21.1947 26.0564 21.3313C25.9205 21.6726 25.6486 21.8092 25.3087 21.8774C24.4251 22.1505 23.5415 22.3553 22.6578 22.4236H22.5899C22.7938 22.6284 22.9977 22.765 23.2016 22.9015C23.6094 23.1063 24.0173 23.2429 24.4931 23.3794C24.561 23.3794 24.629 23.4477 24.561 23.5159C24.2212 23.9938 23.8813 24.4717 23.4055 24.8131C23.0657 25.1544 22.6578 25.1544 22.182 25.1544H20.6187C20.2109 25.1544 19.803 25.1544 19.3952 25.2227C19.0553 25.291 18.7834 25.4275 18.5795 25.7006C17.8998 26.4516 17.492 27.4074 17.0162 28.2949L16.8123 28.7045C16.6763 29.2507 16.3365 29.5238 15.8607 29.7286C15.4528 29.7969 14.977 30.0699 14.5012 30.343Z" fill="white"/>
<path opacity="0.98" d="M0.788181 19.3652L20.0986 0.35498L21.8063 3.03248L3.54681 21.5742V21.6411L17.7341 36.1666L16.6832 39.1787L0 21.775L0.788181 19.3652Z" fill="white"/>
</svg>
