<svg width="62" height="58" viewBox="0 0 62 58" fill="none" xmlns="http://www.w3.org/2000/svg">
<path d="M60.4173 32.2137L34.2961 57.75L31.9861 54.1407L56.6857 29.236V29.1457L37.5835 9.47461L39.005 5.41406L61.5723 28.9652L60.4173 32.2137Z" fill="white"/>
<path fill-rule="evenodd" clip-rule="evenodd" d="M19.6177 40.425C19.8935 39.5046 20.2613 38.6763 20.6291 37.8481C22.1921 34.6269 24.3069 31.774 26.6055 29.105C29.6397 25.6999 33.0417 22.6628 36.9034 20.1779C38.5584 19.0736 40.3054 18.1532 42.2362 17.509C42.3282 17.417 42.5121 17.417 42.696 17.325L41.5926 18.7054C40.3973 20.1779 39.1101 21.6505 38.0987 23.307C38.0067 23.4911 37.9148 23.4911 37.7309 23.4911C36.9954 23.6752 36.1678 23.8592 35.3403 23.8592C35.6162 24.2273 36.0759 24.4114 36.4437 24.5955C36.6276 24.6875 36.9954 24.6875 37.0873 24.9636C37.0873 25.1477 36.8115 25.4238 36.7195 25.6078C36.5356 26.068 36.1678 26.3441 35.7081 26.4361C34.9726 26.6202 34.237 26.8042 33.4095 26.8042C33.4095 26.9883 33.5014 26.9883 33.5934 27.0803C34.0531 27.4485 34.6048 27.7246 35.1564 27.9086C35.3403 28.0007 35.3403 28.0927 35.2484 28.2767C35.0645 28.7369 34.6967 28.921 34.237 29.013C33.0417 29.3811 31.8464 29.6572 30.6511 29.7493H30.5592C30.835 30.0253 31.1108 30.2094 31.3867 30.3935C31.9384 30.6696 32.49 30.8536 33.1336 31.0377C33.2256 31.0377 33.3175 31.1297 33.2256 31.2218C32.7659 31.866 32.3061 32.5102 31.6625 32.9704C31.2028 33.4305 30.6511 33.4305 30.0075 33.4305H27.8928C27.3411 33.4305 26.7894 33.4305 26.2377 33.5226C25.778 33.6146 25.4102 33.7987 25.1344 34.1668C24.2149 35.1791 23.6633 36.4676 23.0197 37.664L22.7438 38.2162C22.5599 38.9524 22.1002 39.3206 21.4566 39.5967C20.9049 39.6887 20.2613 40.0568 19.6177 40.425Z" fill="white"/>
<path opacity="0.98" d="M1.06617 25.6266L27.1874 0L29.4974 3.60938L4.79777 28.6043V28.6945L23.9889 48.2754L22.5673 52.3359L0 28.875L1.06617 25.6266Z" fill="white"/>
</svg>
