<svg width="33" height="24" viewBox="0 0 33 24" fill="none" xmlns="http://www.w3.org/2000/svg">
<path d="M18.4857 12.3699C18.4857 17.473 14.4021 21.6099 9.36492 21.6099C4.32778 21.6099 0.244141 17.473 0.244141 12.3699C0.244141 7.26676 4.32778 3.12988 9.36492 3.12988C14.4021 3.12988 18.4857 7.26676 18.4857 12.3699Z" fill="#DDDDDD"/>
<path d="M28.4908 12.3684C28.4908 17.1723 26.449 21.0662 23.9303 21.0662C21.4116 21.0662 19.3698 17.1719 19.3698 12.3684C19.3698 7.56496 21.4116 3.67065 23.9303 3.67065C26.449 3.67065 28.4908 7.56496 28.4908 12.3684Z" fill="#DDDDDD"/>
<path d="M32.5834 12.3716C32.5834 16.6756 31.8654 20.1645 30.9794 20.1645C30.0935 20.1645 29.3755 16.6756 29.3755 12.3716C29.3755 8.06758 30.0935 4.57861 30.9794 4.57861C31.8654 4.57861 32.5834 8.06758 32.5834 12.3716Z" fill="#DDDDDD"/>
</svg>
