<svg width="215" height="30" viewBox="0 0 215 30" fill="none" xmlns="http://www.w3.org/2000/svg">
<path d="M28.9547 14.875C28.9547 19.1618 27.3907 22.7341 24.2626 25.5919L27.6199 29.0294H23.7773L22.038 27.25C19.7998 28.625 17.3999 29.3125 14.8381 29.3125C11.1978 29.3125 7.92144 27.9375 5.00914 25.1875C2.12382 22.4105 0.681152 18.973 0.681152 14.875C0.681152 10.777 2.12382 7.35294 5.00914 4.60294C7.92144 1.82598 11.1978 0.4375 14.8381 0.4375C18.5594 0.4375 21.8357 1.8125 24.6671 4.5625C27.5255 7.3125 28.9547 10.75 28.9547 14.875ZM14.8381 26.1176C16.6448 26.1176 18.2763 25.7132 19.7324 24.9044L13.746 18.7574H17.5886L21.9975 23.2868C24.2626 21.1029 25.3952 18.299 25.3952 14.875C25.3952 11.5858 24.357 8.8897 22.2807 6.78676C20.2313 4.65686 17.7504 3.59191 14.8381 3.59191C12.0876 3.59191 9.63376 4.65686 7.4765 6.78676C5.34622 8.91667 4.28107 11.6127 4.28107 14.875C4.28107 18.1103 5.34622 20.7929 7.4765 22.9228C9.63376 25.0527 12.0876 26.1176 14.8381 26.1176Z" fill="white"/>
<path d="M50.5877 8H53.8236V29.0294H50.5877V23.9338C50.318 25.0931 49.5091 26.2794 48.1608 27.4926C46.8125 28.7059 45.1136 29.3125 43.0643 29.3125C40.7991 29.3125 38.925 28.5846 37.4419 27.1287C35.9588 25.6728 35.2172 23.4216 35.2172 20.375V8H38.4531V20.2941C38.4531 22.424 38.9115 23.9877 39.8284 24.9853C40.7452 25.9828 41.9856 26.4816 43.5496 26.4816C45.3024 26.4816 46.826 25.8076 48.1203 24.4596C49.4147 23.0846 50.2371 21.6017 50.5877 20.011V8Z" fill="white"/>
<path d="M64.1054 0.720587V3.75368H60.8291V0.720587H64.1054ZM64.1054 8V29.0294H60.8291V8H64.1054Z" fill="white"/>
<path d="M74.6947 0.720587V29.0294H71.4184V0.720587H74.6947Z" fill="white"/>
<path d="M85.0912 0.720587V29.0294H81.8149V0.720587H85.0912Z" fill="white"/>
<path d="M113.932 29.0294L110.413 21.1434H97.7933L94.2743 29.0294H90.6744L103.739 0.720587H104.467L117.492 29.0294H113.932ZM99.0472 18.3125H109.159L104.103 6.90809L99.0472 18.3125Z" fill="white"/>
<path d="M137.923 8H141.159V29.0294H137.923V23.9338C137.654 25.0931 136.845 26.2794 135.496 27.4926C134.148 28.7059 132.449 29.3125 130.4 29.3125C128.135 29.3125 126.261 28.5846 124.778 27.1287C123.294 25.6728 122.553 23.4216 122.553 20.375V8H125.789V20.2941C125.789 22.424 126.247 23.9877 127.164 24.9853C128.081 25.9828 129.321 26.4816 130.885 26.4816C132.638 26.4816 134.162 25.8076 135.456 24.4596C136.75 23.0846 137.573 21.6017 137.923 20.011V8Z" fill="white"/>
<path d="M164.425 0.720587H167.661V29.0294H164.425V24.9044C163.859 26.1985 162.915 27.2635 161.594 28.0993C160.272 28.9081 158.803 29.3125 157.185 29.3125C154.65 29.3125 152.358 28.3554 150.308 26.4412C148.259 24.527 147.234 21.8848 147.234 18.5147C147.234 16.7892 147.544 15.2255 148.165 13.8235C148.785 12.3946 149.58 11.2623 150.551 10.4265C151.522 9.56372 152.574 8.90319 153.706 8.44485C154.866 7.98652 156.025 7.75735 157.185 7.75735C158.83 7.75735 160.313 8.14828 161.634 8.93015C162.955 9.71201 163.886 10.7365 164.425 12.0037V0.720587ZM152.654 24.3787C154.111 25.7806 155.756 26.4816 157.589 26.4816C159.423 26.4816 161.041 25.8076 162.443 24.4596C163.845 23.0846 164.546 21.1029 164.546 18.5147C164.546 15.9265 163.845 13.9583 162.443 12.6103C161.041 11.2623 159.423 10.5882 157.589 10.5882C155.756 10.5882 154.111 11.2892 152.654 12.6912C151.198 14.0931 150.47 16.0343 150.47 18.5147C150.47 20.9951 151.198 22.9498 152.654 24.3787Z" fill="white"/>
<path d="M177.717 0.720587V3.75368H174.44V0.720587H177.717ZM177.717 8V29.0294H174.44V8H177.717Z" fill="white"/>
<path d="M191.299 26.4412C192.216 26.4412 193.146 26.2255 194.09 25.7941V28.5441C193.119 29.0294 191.919 29.2721 190.49 29.2721C187.767 29.2721 186.405 27.7757 186.405 24.7831V10.6691H183.816V8H186.405V4.36029H189.641V8H194.05V10.6691H189.641V24.5C189.641 25.7941 190.194 26.4412 191.299 26.4412Z" fill="white"/>
<path d="M210.69 13.0147C209.746 11.3431 208.344 10.5074 206.483 10.5074C205.458 10.5074 204.622 10.777 203.975 11.3162C203.355 11.8284 203.045 12.462 203.045 13.2169C203.045 13.9179 203.261 14.511 203.692 14.9963C204.15 15.4816 204.932 15.913 206.038 16.2904L208.182 17.0588C210.258 17.7868 211.809 18.5821 212.833 19.4449C213.858 20.3076 214.37 21.5748 214.37 23.2463C214.37 25.0797 213.575 26.549 211.984 27.6544C210.393 28.7598 208.613 29.3125 206.645 29.3125C204.784 29.3125 203.085 28.8137 201.548 27.8162C200.011 26.8186 199.013 25.4841 198.555 23.8125L201.386 23.0441C201.737 24.0956 202.411 24.9449 203.409 25.5919C204.407 26.212 205.485 26.5221 206.645 26.5221C207.777 26.5221 208.789 26.2255 209.678 25.6324C210.568 25.0123 211.013 24.2169 211.013 23.2463C211.013 22.4105 210.73 21.723 210.164 21.1838C209.597 20.6446 208.735 20.1728 207.575 19.7684L205.148 18.9191C203.207 18.2181 201.818 17.4363 200.982 16.5735C200.146 15.7108 199.728 14.6054 199.728 13.2574C199.728 11.6936 200.375 10.386 201.67 9.33456C202.991 8.28309 204.582 7.75735 206.442 7.75735C209.813 7.75735 212.213 9.25368 213.642 12.2463L210.69 13.0147Z" fill="white"/>
</svg>
