<svg width="21" height="21" viewBox="0 0 21 21" fill="none" xmlns="http://www.w3.org/2000/svg">
<path d="M8.87855 1.68328C9.35752 0.209181 11.443 0.209184 11.9219 1.68328L13.274 5.84458C13.4882 6.50382 14.1026 6.95016 14.7957 6.95016H19.1712C20.7211 6.95016 21.3656 8.93354 20.1116 9.84458L16.5718 12.4164C16.011 12.8238 15.7764 13.546 15.9906 14.2053L17.3427 18.3666C17.8216 19.8407 16.1345 21.0665 14.8805 20.1554L11.3407 17.5836C10.7799 17.1762 10.0206 17.1762 9.45979 17.5836L5.91997 20.1554C4.66603 21.0665 2.97886 19.8407 3.45783 18.3666L4.80992 14.2053C5.02411 13.546 4.78946 12.8238 4.22868 12.4164L0.688865 9.84458C-0.565077 8.93354 0.079366 6.95016 1.62932 6.95016H6.00477C6.69794 6.95016 7.31227 6.50382 7.52646 5.84458L8.87855 1.68328Z" fill="url(#paint0_linear_109_266)"/>
<defs>
<linearGradient id="paint0_linear_109_266" x1="10.4002" y1="-3" x2="10.4002" y2="25.8" gradientUnits="userSpaceOnUse">
<stop stop-color="#FFCE50"/>
<stop offset="1" stop-color="#FE9D0B"/>
</linearGradient>
</defs>
</svg>
