<svg width="21" height="21" viewBox="0 0 21 21" fill="none" xmlns="http://www.w3.org/2000/svg">
<path d="M9.07777 1.68328C9.55674 0.209181 11.6422 0.209184 12.1212 1.68328L13.4732 5.84458C13.6874 6.50382 14.3018 6.95016 14.9949 6.95016H19.3704C20.9203 6.95016 21.5648 8.93354 20.3108 9.84458L16.771 12.4164C16.2102 12.8238 15.9756 13.546 16.1898 14.2053L17.5419 18.3666C18.0208 19.8407 16.3337 21.0665 15.0797 20.1554L11.5399 17.5836C10.9791 17.1762 10.2198 17.1762 9.65901 17.5836L6.11919 20.1554C4.86525 21.0665 3.17808 19.8407 3.65705 18.3666L5.00913 14.2053C5.22333 13.546 4.98868 12.8238 4.4279 12.4164L0.888084 9.84458C-0.365858 8.93354 0.278585 6.95016 1.82854 6.95016H6.20399C6.89716 6.95016 7.51148 6.50382 7.72568 5.84458L9.07777 1.68328Z" fill="url(#paint0_linear_109_267)"/>
<defs>
<linearGradient id="paint0_linear_109_267" x1="10.5995" y1="-3" x2="10.5995" y2="25.8" gradientUnits="userSpaceOnUse">
<stop stop-color="#FFCE50"/>
<stop offset="1" stop-color="#FE9D0B"/>
</linearGradient>
</defs>
</svg>
