<svg width="22" height="21" viewBox="0 0 22 21" fill="none" xmlns="http://www.w3.org/2000/svg">
<path d="M9.67836 1.68328C10.1573 0.209181 12.2428 0.209184 12.7217 1.68328L14.0738 5.84458C14.288 6.50382 14.9024 6.95016 15.5955 6.95016H19.971C21.5209 6.95016 22.1654 8.93354 20.9114 9.84458L17.3716 12.4164C16.8108 12.8238 16.5762 13.546 16.7904 14.2053L18.1425 18.3666C18.6214 19.8407 16.9343 21.0665 15.6803 20.1554L12.1405 17.5836C11.5797 17.1762 10.8204 17.1762 10.2596 17.5836L6.71978 20.1554C5.46584 21.0665 3.77867 19.8407 4.25763 18.3666L5.60972 14.2053C5.82392 13.546 5.58927 12.8238 5.02849 12.4164L1.48867 9.84458C0.234728 8.93354 0.879171 6.95016 2.42913 6.95016H6.80458C7.49774 6.95016 8.11207 6.50382 8.32627 5.84458L9.67836 1.68328Z" fill="url(#paint0_linear_109_265)"/>
<defs>
<linearGradient id="paint0_linear_109_265" x1="11.2" y1="-3" x2="11.2" y2="25.8" gradientUnits="userSpaceOnUse">
<stop stop-color="#FFCE50"/>
<stop offset="1" stop-color="#FE9D0B"/>
</linearGradient>
</defs>
</svg>
