<svg width="31" height="24" viewBox="0 0 31 24" fill="none" xmlns="http://www.w3.org/2000/svg">
<path d="M25.9789 2.75448C24.0096 1.83882 21.9262 1.1882 19.7838 0.819824C19.5168 1.29927 19.205 1.94412 18.99 2.45713C16.68 2.11197 14.3914 2.11197 12.1238 2.45713C11.9089 1.94423 11.5901 1.29927 11.3208 0.819824C9.17619 1.18838 7.09096 1.84065 5.12062 2.75927C1.19984 8.64699 0.136951 14.3882 0.668331 20.0483C3.26886 21.978 5.78904 23.1504 8.26675 23.9175C8.88251 23.076 9.42684 22.1852 9.89411 21.2541C9.0045 20.9175 8.1469 20.5028 7.33147 20.0147C7.54606 19.8567 7.75559 19.692 7.95976 19.5209C12.9009 21.8174 18.2696 21.8174 23.1518 19.5209C23.357 19.6907 23.5664 19.8555 23.7801 20.0147C22.9633 20.504 22.1041 20.9197 21.2127 21.2566C21.6827 22.1914 22.226 23.0831 22.8401 23.9198C25.3201 23.1527 27.8426 21.9805 30.4432 20.0483C31.0667 13.487 29.378 7.79833 25.9789 2.75448ZM10.5673 16.5674C9.084 16.5674 7.86755 15.1914 7.86755 13.5158C7.86755 11.8401 9.05807 10.4618 10.5673 10.4618C12.0767 10.4618 13.2929 11.8376 13.2671 13.5158C13.2694 15.1914 12.0767 16.5674 10.5673 16.5674ZM20.5442 16.5674C19.0609 16.5674 17.8445 15.1914 17.8445 13.5158C17.8445 11.8401 19.035 10.4618 20.5442 10.4618C22.0535 10.4618 23.2699 11.8376 23.2439 13.5158C23.2439 15.1914 22.0535 16.5674 20.5442 16.5674Z" fill="#DDDDDD"/>
</svg>
