<svg width="29" height="24" viewBox="0 0 29 24" fill="none" xmlns="http://www.w3.org/2000/svg">
<path fill-rule="evenodd" clip-rule="evenodd" d="M28.8528 1.30465C28.8295 1.20119 28.7784 1.10557 28.7046 1.02746C28.6309 0.949356 28.5372 0.891534 28.433 0.859861C28.0537 0.786956 27.6611 0.813959 27.2961 0.938079C27.2961 0.938079 1.99724 9.7626 0.552374 10.7397C0.241987 10.9499 0.137322 11.0725 0.0855907 11.2161C-0.164643 11.9165 0.613729 12.2177 0.613729 12.2177L7.13425 14.2794C7.2445 14.2985 7.35788 14.2921 7.46509 14.2607C8.94725 13.3513 22.3829 5.11511 23.1636 4.83843C23.2839 4.80341 23.3766 4.83843 23.3525 4.92598C23.0421 5.9825 11.4315 15.9908 11.3678 16.0515C11.3367 16.0761 11.3125 16.108 11.2974 16.1441C11.2823 16.1802 11.2767 16.2194 11.2812 16.2581L10.6724 22.4361C10.6724 22.4361 10.4174 24.3589 12.3988 22.4361C13.8039 21.0714 15.1525 19.9413 15.8262 19.3915C18.0687 20.894 20.4808 22.5552 21.5215 23.4249C21.6965 23.5893 21.9039 23.7178 22.1313 23.8027C22.3587 23.8875 22.6014 23.927 22.8448 23.9187C23.1446 23.8833 23.4263 23.7601 23.6521 23.5655C23.878 23.3709 24.0374 23.1142 24.1092 22.8295C24.1092 22.8295 28.7169 4.82442 28.8709 2.41253C28.8865 2.17905 28.907 2.02495 28.9094 1.86268C28.917 1.67504 28.8978 1.48728 28.8528 1.30465Z" fill="#DDDDDD"/>
</svg>
