<svg width="25" height="24" viewBox="0 0 25 24" fill="none" xmlns="http://www.w3.org/2000/svg">
<path d="M21.5093 0.819824C22.19 0.819824 22.8428 1.09024 23.3242 1.57159C23.8056 2.05293 24.076 2.70577 24.076 3.38649V21.3532C24.076 22.0338 23.8056 22.6867 23.3242 23.168C22.8428 23.6494 22.19 23.9198 21.5093 23.9198H3.54262C2.8619 23.9198 2.20906 23.6494 1.72772 23.168C1.24636 22.6867 0.975952 22.0338 0.975952 21.3532V3.38649C0.975952 2.70577 1.24636 2.05293 1.72772 1.57159C2.20906 1.09024 2.8619 0.819824 3.54262 0.819824H21.5093ZM20.8676 20.7115V13.9098C20.8676 12.8003 20.4268 11.7361 19.6423 10.9515C18.8577 10.167 17.7935 9.72616 16.684 9.72616C15.5931 9.72616 14.3226 10.3935 13.7066 11.3945V9.96999H10.1261V20.7115H13.7066V14.3847C13.7066 13.3965 14.5023 12.588 15.4905 12.588C15.967 12.588 16.4239 12.7773 16.7608 13.1143C17.0978 13.4512 17.2871 13.9082 17.2871 14.3847V20.7115H20.8676ZM5.95529 7.95516C6.52709 7.95516 7.07548 7.72801 7.47981 7.32368C7.88413 6.91935 8.11129 6.37096 8.11129 5.79916C8.11129 4.60566 7.14879 3.63032 5.95529 3.63032C5.38007 3.63032 4.82843 3.85882 4.42169 4.26556C4.01495 4.6723 3.78645 5.22394 3.78645 5.79916C3.78645 6.99266 4.76179 7.95516 5.95529 7.95516ZM7.73912 20.7115V9.96999H4.18429V20.7115H7.73912Z" fill="#DDDDDD"/>
</svg>
