<svg width="31" height="24" viewBox="0 0 31 24" fill="none" xmlns="http://www.w3.org/2000/svg">
<path fill-rule="evenodd" clip-rule="evenodd" d="M30.3108 5.76982C30.3108 5.76982 30.0605 3.43232 29.0595 2.46982C27.9334 1.09482 26.6821 1.09482 26.0565 1.09482C21.8023 0.819824 15.546 0.819824 15.546 0.819824C15.546 0.819824 9.28976 0.819824 5.03551 1.09482C4.40988 1.23232 3.15863 1.23232 2.03251 2.46982C1.15663 3.43232 0.781256 5.76982 0.781256 5.76982C0.781256 5.76982 0.531006 8.38231 0.531006 11.1323V13.6073C0.531006 16.2198 0.781256 18.9698 0.781256 18.9698C0.781256 18.9698 1.03151 21.3073 2.03251 22.2698C3.15863 23.6448 4.66013 23.5073 5.28576 23.6448C7.66313 23.9198 15.546 23.9198 15.546 23.9198C15.546 23.9198 21.8023 23.9198 26.0565 23.5073C26.6821 23.3698 27.9334 23.3698 29.0595 22.1323C29.9354 21.1698 30.3108 18.8323 30.3108 18.8323C30.3108 18.8323 30.561 16.2198 30.561 13.4698V10.9948C30.561 8.38231 30.3108 5.76982 30.3108 5.76982ZM12.4179 16.6323V7.41981L20.551 12.0948L12.4179 16.6323Z" fill="#DDDDDD"/>
</svg>
