<svg width="27" height="24" viewBox="0 0 27 24" fill="none" xmlns="http://www.w3.org/2000/svg">
<path fill-rule="evenodd" clip-rule="evenodd" d="M26.281 12.1411C26.281 10.3114 24.9046 8.82477 23.2106 8.82477C22.4695 8.82477 21.8342 9.05348 21.3048 9.51091C19.3991 8.25299 17.0698 7.45249 14.5288 7.33814L15.7993 2.87824L19.3991 3.79309C19.505 5.16536 20.5637 6.30893 21.9401 6.30893C23.3165 6.30893 24.4811 5.05101 24.4811 3.56438C24.4811 2.07774 23.3165 0.819824 21.9401 0.819824C20.9872 0.819824 20.1402 1.39161 19.7167 2.30646L15.4817 1.27725C15.1641 1.16289 14.7406 1.39161 14.6347 1.73467L13.0466 7.33814C10.3997 7.45249 7.75285 8.13863 5.8471 9.51091C5.31772 9.05348 4.68247 8.82477 3.94135 8.82477C2.24735 8.82477 0.870972 10.3114 0.870972 12.1411C0.870972 13.2847 1.40035 14.3139 2.14147 14.8857C2.14147 15.1144 2.14147 15.4575 2.14147 15.6862C2.14147 17.9733 3.41197 20.0317 5.63535 21.6327C7.75285 23.1193 10.6115 23.9198 13.576 23.9198C16.5405 23.9198 19.3991 23.1193 21.5166 21.6327C23.74 20.0317 25.0105 17.9733 25.0105 15.6862C25.0105 15.4575 25.0105 15.2287 25.0105 15C25.7516 14.3139 26.281 13.2847 26.281 12.1411ZM22.046 2.30646C22.6812 2.30646 23.2106 2.87824 23.2106 3.56438C23.2106 4.25051 22.6812 4.8223 22.046 4.8223C21.4107 4.8223 20.8813 4.25051 20.8813 3.56438C20.8813 2.87824 21.4107 2.30646 22.046 2.30646ZM8.07047 14.1995C8.07047 13.1703 8.91747 12.3698 9.76447 12.3698C10.7173 12.3698 11.4585 13.2847 11.4585 14.1995C11.4585 15.1144 10.7173 16.0292 9.76447 16.0292C8.91747 16.0292 8.07047 15.2287 8.07047 14.1995ZM17.811 19.5743C16.964 20.4891 15.5876 20.9466 13.6818 20.9466C11.7761 20.9466 10.3997 20.4891 9.55272 19.5743C9.2351 19.2312 9.2351 18.7738 9.55272 18.5451C9.87035 18.202 10.2938 18.202 10.5056 18.5451C11.1408 19.2312 12.1996 19.5743 13.6818 19.5743C15.1641 19.5743 16.2228 19.2312 16.8581 18.5451C17.1757 18.202 17.5992 18.202 17.811 18.5451C18.0227 18.8881 18.0227 19.3456 17.811 19.5743ZM17.3875 16.0292C16.4346 16.0292 15.5876 15.2287 15.5876 14.1995C15.5876 13.1703 16.4346 12.3698 17.3875 12.3698C18.3403 12.3698 19.0815 13.2847 19.0815 14.1995C19.0815 15.1144 18.3403 16.0292 17.3875 16.0292Z" fill="#DDDDDD"/>
</svg>
