<svg width="24" height="24" viewBox="0 0 24 24" fill="none" xmlns="http://www.w3.org/2000/svg">
<path fill-rule="evenodd" clip-rule="evenodd" d="M22.3185 0.819824H1.14353C0.888259 0.819824 0.643444 0.92123 0.46294 1.10173C0.282436 1.28224 0.18103 1.52705 0.18103 1.78233V22.9573C0.18103 23.2126 0.282436 23.4573 0.46294 23.6379C0.643444 23.8184 0.888259 23.9198 1.14353 23.9198H22.3185C22.5738 23.9198 22.8186 23.8184 22.9991 23.6379C23.1796 23.4573 23.281 23.2126 23.281 22.9573V1.78233C23.281 1.52705 23.1796 1.28224 22.9991 1.10173C22.8186 0.92123 22.5738 0.819824 22.3185 0.819824ZM19.3713 6.2926L18.1326 7.48032C18.0802 7.52023 18.0397 7.57368 18.0155 7.63491C17.9912 7.69613 17.9841 7.76282 17.995 7.82778V16.5557C17.9841 16.6207 17.9912 16.6873 18.0155 16.7486C18.0397 16.8098 18.0802 16.8633 18.1326 16.9032L19.3425 18.0909V18.3518H13.2575V18.0909L14.5088 16.8743C14.632 16.7511 14.632 16.7146 14.632 16.5269V9.47269L11.1468 18.3277H10.6761L6.62111 9.47269V15.4046C6.60442 15.5276 6.61593 15.6527 6.65479 15.7706C6.69365 15.8885 6.75882 15.9961 6.84537 16.0851L8.47585 18.0621V18.3229H3.85585V18.0621L5.48344 16.0851C5.56929 15.9961 5.63301 15.8881 5.66946 15.7699C5.70591 15.6517 5.71406 15.5265 5.69326 15.4046V8.54581C5.70315 8.45209 5.69088 8.35736 5.65744 8.26925C5.624 8.18115 5.57034 8.10212 5.50076 8.03857L4.04931 6.2926V6.03176H8.54803L12.0255 13.6586L15.0824 6.03176H19.3713V6.2926Z" fill="white"/>
</svg>
