<svg width="25" height="24" viewBox="0 0 25 24" fill="none" xmlns="http://www.w3.org/2000/svg">
<path d="M22.3554 21.5632L14.6165 10.574L13.7415 9.33116L8.20365 1.47164L7.74476 0.819824H0.943115L2.60171 3.17618L9.96339 13.6296L10.8384 14.8705L16.7534 23.2697L17.2123 23.9196H24.0159L22.3554 21.5632ZM18.0192 22.4146L11.8748 13.6885L10.9998 12.4457L3.86951 2.32293H6.9359L12.7031 10.5112L13.5781 11.754L21.0876 22.4164H18.0192V22.4146Z" fill="#DDDDDD"/>
<path d="M11.0003 12.4478L11.8753 13.6905L10.8389 14.8706L2.87833 23.9197H0.916382L9.9639 13.6297L11.0003 12.4478Z" fill="#DDDDDD"/>
<path d="M23.1966 0.819824L14.6177 10.574L13.5794 11.754L12.7043 10.5112L13.7427 9.33117L19.5546 2.72012L21.2347 0.819824H23.1966Z" fill="#DDDDDD"/>
</svg>
